<?xml version="1.0" encoding="utf-8"?>
<!-- Uploaded to: SVG Repo, www.svgrepo.com, Generator: SVG Repo Mixer Tools -->
<svg width="800px" height="800px" viewBox="-29.71 0 340.72 340.72" xmlns="http://www.w3.org/2000/svg"><defs><style>.a{fill:#ffffff;}.b{fill:#95cbeb;}.c{fill:#211715;}.d{fill:#957f6e;}.e{fill:#74c66d;}</style></defs><path class="a" d="M224.305,29.412c0-14.768,0-24.524,0-26.932h-.48c-59.361,0-113.735-.08-166.649-.08h-.837c-.012,15.921.091,312.062.091,335.92h167.8C224.23,319.665,224.3,106.41,224.305,29.412Z"/><path class="b" d="M70.8,16.755h-.47V286.321c59.117,0,84.724,0,140,0,0-53.14,0-222.1.013-269.558C178.052,16.759,103.836,16.758,70.8,16.755Z"/><path class="a" d="M169.524,16.759V286.317h-12V16.759Z"/><path class="a" d="M123.132,16.759V286.317h-12V16.759Z"/><path class="c" d="M167.124,16.759V286.317l2.4-2.4h-12l2.4,2.4V16.759l-2.4,2.4h12c3.089,0,3.094-4.8,0-4.8h-12a2.435,2.435,0,0,0-2.4,2.4V286.317a2.435,2.435,0,0,0,2.4,2.4h12a2.435,2.435,0,0,0,2.4-2.4V16.759C171.924,13.67,167.124,13.665,167.124,16.759Z"/><path class="c" d="M120.732,16.759V286.317l2.4-2.4h-12l2.4,2.4V16.759l-2.4,2.4h12c3.089,0,3.094-4.8,0-4.8h-12a2.435,2.435,0,0,0-2.4,2.4V286.317a2.435,2.435,0,0,0,2.4,2.4h12a2.435,2.435,0,0,0,2.4-2.4V16.759C125.532,13.67,120.732,13.665,120.732,16.759Z"/><path class="c" d="M67.928,3.147v283.17c0,3.088,4.8,3.093,4.8,0V3.147c0-3.089-4.8-3.094-4.8,0Z"/><path class="c" d="M221.925,2.4q0,5.907,0,11.815,0,12.474-.007,24.949,0,17.484-.01,34.968l-.012,41.852q-.007,22.8-.014,45.6-.006,23.2-.013,46.4-.008,21.844-.013,43.691-.006,19.015-.011,38.031,0,14.619-.008,29.237,0,8.657,0,17.311v2.066c0,3.089,4.8,3.094,4.8,0q0-6.993,0-13.988,0-13.321.007-26.645,0-18.1.01-36.195l.012-42.612q.007-22.949.014-45.895.006-23.109.014-46.218l.012-43.045q.006-18.457.011-36.916,0-13.827.008-27.654,0-7.631,0-15.26,0-.747,0-1.492c0-3.089-4.8-3.094-4.8,0Z"/><path class="c" d="M57.174,4.8q31.454,0,62.909.027,32.634.022,65.268.043,19.236.009,38.472.01c3.089,0,3.094-4.8,0-4.8Q190.067.08,156.31.053,124.32.031,92.329.01,74.751,0,57.174,0c-3.089,0-3.094,4.8,0,4.8Z"/><path class="c" d="M53.925,2.32q0,5.986,0,11.972,0,12.5.008,25,.006,17.466.011,34.932.008,20.88.014,41.76l.015,45.306.015,46.287Q54,229.316,54,251.051l.012,38.075q0,14.7.008,29.405,0,8.815,0,17.631v2.158c0,3.089,4.8,3.094,4.8,0q0-7.149,0-14.3,0-13.413-.008-26.826-.006-18.126-.011-36.252-.008-21.288-.014-42.575l-.015-45.618-.015-46.1q-.006-21.388-.014-42.778L58.737,47q0-13.851-.008-27.7,0-7.713,0-15.427V2.32c0-3.088-4.8-3.093-4.8,0Z"/><path class="c" d="M209.687,14.359H70.86c-3.088,0-3.093,4.8,0,4.8H209.687c3.089,0,3.094-4.8,0-4.8Z"/><path class="c" d="M207.928,3.469V285.892c0,3.088,4.8,3.093,4.8,0V3.469c0-3.088-4.8-3.093-4.8,0Z"/><path class="a" d="M70.328,37.264h140v8h-140Z"/><path class="a" d="M70.328,61.769h140v8h-140Z"/><path class="a" d="M70.328,86.275h140v8h-140Z"/><path class="a" d="M70.328,110.78h140v8h-140Z"/><path class="a" d="M70.328,135.285h140v8h-140Z"/><path class="a" d="M70.328,159.79h140v8h-140Z"/><path class="a" d="M70.328,184.3h140v8h-140Z"/><path class="a" d="M70.328,208.8h140v8h-140Z"/><path class="a" d="M70.328,233.306h140v8h-140Z"/><path class="a" d="M70.328,257.811h140v8h-140Z"/><path class="b" d="M210.328,335.466c0-4.952,0-20.048.01-34.588H70.328V338.32h140v-2.854Z"/><path class="c" d="M57.01,303.278H223.73c3.088,0,3.093-4.8,0-4.8H57.01c-3.089,0-3.094,4.8,0,4.8Z"/><path class="c" d="M57.01,288.717H223.74c3.088,0,3.093-4.8,0-4.8H57.01c-3.089,0-3.094,4.8,0,4.8Z"/><path class="c" d="M207.928,303.148v34c0,3.088,4.8,3.093,4.8,0v-34c0-3.089-4.8-3.094-4.8,0Z"/><path class="c" d="M161.158,309.148v22c0,3.088,4.8,3.093,4.8,0v-22c0-3.089-4.8-3.094-4.8,0Z"/><path class="c" d="M114.706,309.148v22c0,3.088,4.8,3.093,4.8,0v-22c0-3.089-4.8-3.094-4.8,0Z"/><path class="c" d="M67.928,303.148v34c0,3.088,4.8,3.093,4.8,0v-34c0-3.089-4.8-3.094-4.8,0Z"/><path class="c" d="M70.328,39.664h140l-2.4-2.4v8l2.4-2.4h-140l2.4,2.4v-8c0-3.088-4.8-3.093-4.8,0v8a2.435,2.435,0,0,0,2.4,2.4h140a2.434,2.434,0,0,0,2.4-2.4v-8a2.435,2.435,0,0,0-2.4-2.4h-140C67.24,34.864,67.235,39.664,70.328,39.664Z"/><path class="c" d="M70.328,64.169h140l-2.4-2.4v8l2.4-2.4h-140l2.4,2.4v-8c0-3.088-4.8-3.093-4.8,0v8a2.435,2.435,0,0,0,2.4,2.4h140a2.434,2.434,0,0,0,2.4-2.4v-8a2.435,2.435,0,0,0-2.4-2.4h-140C67.24,59.369,67.235,64.169,70.328,64.169Z"/><path class="c" d="M70.328,88.675h140l-2.4-2.4v8l2.4-2.4h-140l2.4,2.4v-8c0-3.089-4.8-3.094-4.8,0v8a2.435,2.435,0,0,0,2.4,2.4h140a2.435,2.435,0,0,0,2.4-2.4v-8a2.434,2.434,0,0,0-2.4-2.4h-140C67.24,83.875,67.235,88.675,70.328,88.675Z"/><path class="c" d="M70.328,113.18h140l-2.4-2.4v8l2.4-2.4h-140l2.4,2.4v-8c0-3.089-4.8-3.094-4.8,0v8a2.435,2.435,0,0,0,2.4,2.4h140a2.435,2.435,0,0,0,2.4-2.4v-8a2.435,2.435,0,0,0-2.4-2.4h-140C67.24,108.38,67.235,113.18,70.328,113.18Z"/><path class="c" d="M70.328,137.685h140l-2.4-2.4v8l2.4-2.4h-140l2.4,2.4v-8c0-3.088-4.8-3.093-4.8,0v8a2.435,2.435,0,0,0,2.4,2.4h140a2.434,2.434,0,0,0,2.4-2.4v-8a2.435,2.435,0,0,0-2.4-2.4h-140C67.24,132.885,67.235,137.685,70.328,137.685Z"/><path class="c" d="M70.328,162.19h140l-2.4-2.4v8l2.4-2.4h-140l2.4,2.4v-8c0-3.088-4.8-3.093-4.8,0v8a2.435,2.435,0,0,0,2.4,2.4h140a2.434,2.434,0,0,0,2.4-2.4v-8a2.435,2.435,0,0,0-2.4-2.4h-140C67.24,157.39,67.235,162.19,70.328,162.19Z"/><path class="c" d="M70.328,186.7h140l-2.4-2.4v8l2.4-2.4h-140l2.4,2.4v-8c0-3.089-4.8-3.094-4.8,0v8a2.435,2.435,0,0,0,2.4,2.4h140a2.435,2.435,0,0,0,2.4-2.4v-8a2.434,2.434,0,0,0-2.4-2.4h-140C67.24,181.9,67.235,186.7,70.328,186.7Z"/><path class="c" d="M70.328,211.2h140l-2.4-2.4v8l2.4-2.4h-140l2.4,2.4v-8c0-3.089-4.8-3.094-4.8,0v8a2.435,2.435,0,0,0,2.4,2.4h140a2.435,2.435,0,0,0,2.4-2.4v-8a2.435,2.435,0,0,0-2.4-2.4h-140C67.24,206.4,67.235,211.2,70.328,211.2Z"/><path class="c" d="M70.328,235.706h140l-2.4-2.4v8l2.4-2.4h-140l2.4,2.4v-8c0-3.088-4.8-3.093-4.8,0v8a2.435,2.435,0,0,0,2.4,2.4h140a2.434,2.434,0,0,0,2.4-2.4v-8a2.435,2.435,0,0,0-2.4-2.4h-140C67.24,230.906,67.235,235.706,70.328,235.706Z"/><path class="c" d="M70.328,260.211h140l-2.4-2.4v8l2.4-2.4h-140l2.4,2.4v-8c0-3.088-4.8-3.093-4.8,0v8a2.435,2.435,0,0,0,2.4,2.4h140a2.434,2.434,0,0,0,2.4-2.4v-8a2.435,2.435,0,0,0-2.4-2.4h-140C67.24,255.411,67.235,260.211,70.328,260.211Z"/><path class="d" d="M244.134,337.148V325.521H254.42v11.627"/><path class="e" d="M252.474,289.487a4.822,4.822,0,0,0-5.9,0,29.209,29.209,0,0,0-9.15,12.24,23.547,23.547,0,0,0-1.346,4.5,37.533,37.533,0,0,0-.46,4.454c-.167,2.628-.319,5.353.629,7.81a9.488,9.488,0,0,0,4.5,4.96c2.03,1.041,6.508,1.592,8.782,1.592,1.716,0,6.752-.551,8.783-1.592a9.492,9.492,0,0,0,4.5-4.96c.948-2.457.8-5.182.629-7.81a37.533,37.533,0,0,0-.46-4.454,23.479,23.479,0,0,0-1.347-4.5A29.2,29.2,0,0,0,252.474,289.487Z"/><path class="c" d="M253.685,287.415a7.313,7.313,0,0,0-5.71-1.161c-1.961.4-3.528,1.788-4.957,3.11a31.178,31.178,0,0,0-6.841,9.29,32.2,32.2,0,0,0-2.984,12.471c-.252,4.2.067,8.339,2.9,11.67,2.332,2.737,5.577,3.78,9.02,4.268a30.292,30.292,0,0,0,8.822-.032c3.314-.477,6.439-1.379,8.768-3.95,2.923-3.226,3.413-7.327,3.18-11.516a38.713,38.713,0,0,0-.848-7.121,30.01,30.01,0,0,0-2.525-6.519,30.837,30.837,0,0,0-8.343-10.135,2.479,2.479,0,0,0-3.394,0,2.416,2.416,0,0,0,0,3.394c5.006,3.912,8.984,9.761,9.959,16.127a45.962,45.962,0,0,1,.395,5.138,13.455,13.455,0,0,1-.493,5,6.994,6.994,0,0,1-2.14,3.038,5.874,5.874,0,0,1-2.89,1.365,24.742,24.742,0,0,1-6.6.791,21,21,0,0,1-6.825-1.147,7.485,7.485,0,0,1-4.266-6.838,30.623,30.623,0,0,1,1.038-10.07,26.521,26.521,0,0,1,4.941-9.174,26.255,26.255,0,0,1,3.741-3.72,2.7,2.7,0,0,1,3.625-.132,2.42,2.42,0,0,0,3.284-.861A2.45,2.45,0,0,0,253.685,287.415Z"/><path class="c" d="M252.02,325.521v11.627a2.4,2.4,0,1,0,4.8,0V325.521a2.4,2.4,0,1,0-4.8,0Z"/><path class="c" d="M241.734,325.521v11.627a2.4,2.4,0,1,0,4.8,0V325.521a2.4,2.4,0,1,0-4.8,0Z"/><path class="d" d="M26.357,337.148V325.521H36.642v11.627"/><path class="e" d="M34.7,289.487a4.822,4.822,0,0,0-5.9,0,29.207,29.207,0,0,0-9.149,12.24,23.479,23.479,0,0,0-1.347,4.5,37.533,37.533,0,0,0-.46,4.454c-.167,2.628-.319,5.353.629,7.81a9.492,9.492,0,0,0,4.495,4.96c2.031,1.041,6.508,1.592,8.783,1.592,1.715,0,6.751-.551,8.782-1.592a9.492,9.492,0,0,0,4.5-4.96c.948-2.457.8-5.182.629-7.81a37.533,37.533,0,0,0-.46-4.454,23.547,23.547,0,0,0-1.346-4.5A29.207,29.207,0,0,0,34.7,289.487Z"/><path class="c" d="M35.907,287.415a7.313,7.313,0,0,0-5.71-1.161c-1.96.4-3.528,1.788-4.957,3.11a31.2,31.2,0,0,0-6.841,9.29,32.2,32.2,0,0,0-2.984,12.471c-.252,4.2.068,8.339,2.9,11.67,2.332,2.737,5.577,3.78,9.02,4.268a30.292,30.292,0,0,0,8.822-.032c3.314-.477,6.439-1.379,8.769-3.95,2.923-3.226,3.412-7.327,3.18-11.516a38.8,38.8,0,0,0-.849-7.121,30.058,30.058,0,0,0-2.524-6.519,30.84,30.84,0,0,0-8.344-10.135,2.479,2.479,0,0,0-3.394,0,2.416,2.416,0,0,0,0,3.394c5.006,3.912,8.984,9.761,9.959,16.127a45.726,45.726,0,0,1,.4,5.138,13.455,13.455,0,0,1-.492,5,7,7,0,0,1-2.141,3.038,5.874,5.874,0,0,1-2.89,1.365,24.737,24.737,0,0,1-6.6.791,21,21,0,0,1-6.825-1.147,7.485,7.485,0,0,1-4.266-6.838,30.624,30.624,0,0,1,1.039-10.07,26.8,26.8,0,0,1,8.681-12.894,2.7,2.7,0,0,1,3.626-.132,2.419,2.419,0,0,0,3.283-.861A2.449,2.449,0,0,0,35.907,287.415Z"/><path class="c" d="M34.242,325.521v11.627a2.4,2.4,0,0,0,4.8,0V325.521a2.4,2.4,0,1,0-4.8,0Z"/><path class="c" d="M23.957,325.521v11.627a2.4,2.4,0,0,0,4.8,0V325.521a2.4,2.4,0,0,0-4.8,0Z"/><path class="c" d="M278.983,335.92H2.318c-3.088,0-3.093,4.8,0,4.8H278.983c3.088,0,3.094-4.8,0-4.8Z"/></svg>