<?xml version="1.0" encoding="utf-8"?>
<!-- Uploaded to: SVG Repo, www.svgrepo.com, Generator: SVG Repo Mixer Tools -->
<svg width="800px" height="800px" viewBox="0 -31.39 438.952 438.952" xmlns="http://www.w3.org/2000/svg"><defs><style>.a{fill:#d9d9d9;}.b{fill:#b5886a;}.c{fill:#211715;}.d{fill:#ffffff;}.e{fill:#f4b3b3;}</style></defs><path class="a" d="M64.71,34.688Q59.126,29.27,53.6,23.789a2.4,2.4,0,1,0-3.394,3.394q5.51,5.495,11.109,10.9a2.4,2.4,0,1,0,3.394-3.394Z"/><path class="a" d="M79.315,19.915q-7.507,6.3-14.983,12.642-1.281,1.08-2.563,2.16a2.419,2.419,0,0,0,0,3.394,2.451,2.451,0,0,0,3.394,0Q72.336,32.09,79.479,26.03q1.614-1.362,3.23-2.721a2.418,2.418,0,0,0,0-3.394,2.452,2.452,0,0,0-3.394,0Z"/><path class="a" d="M63.408,0A36.775,36.775,0,0,0,41.385,7.114,35.929,35.929,0,0,0,28.76,25.023C24.333,39.1,28.552,56.077,40.365,65.289,52.107,74.446,69.884,75.424,82.757,68c13.11-7.557,18.695-23.283,16.5-37.818A35.655,35.655,0,0,0,69.751.519,42.785,42.785,0,0,0,63.408,0c-3.089-.015-3.093,4.785,0,4.8a32.322,32.322,0,0,1,19.317,6.232A30.611,30.611,0,0,1,93.472,26.405c3.785,12.221.429,26.877-9.592,35.053-9.808,8-25.555,8.766-36.574,2.7-11.5-6.328-17.067-20-15.092-32.83a31.554,31.554,0,0,1,8.405-17.191,31.171,31.171,0,0,1,17.534-8.96A34.093,34.093,0,0,1,63.408,4.8C66.5,4.785,66.5-.015,63.408,0Z"/><path class="a" d="M362.215,27.4c0,7.443.277,14.883.283,22.326,0,3.6-.068,7.2-.266,10.793q-.15,2.738-.4,5.467c-.086.946-.235,1.9-.284,2.848-.01.186-.113.586.031-.213-.029.165-.05.332-.077.5-.581,3.548-1.492,7.055-2.317,10.552-1.134,4.81-2.289,9.617-3.337,14.447-.873,4.024-1.993,8.278-2.02,12.421-.021,3.089,4.779,3.093,4.8,0a17.345,17.345,0,0,1,.112-1.75c.018-.176.04-.351.061-.527.073-.628-.08.539.014-.113q.1-.723.223-1.443c.343-2.079.763-4.145,1.2-6.206,1.027-4.831,2.177-9.636,3.313-14.442.87-3.684,1.806-7.37,2.48-11.1a111.794,111.794,0,0,0,1.252-18.683c.079-8.293-.27-16.584-.273-24.877,0-3.088-4.8-3.094-4.8,0Z"/><path class="a" d="M334.315,118.947c-.942-.611-.754-2.573-.747-3.685a22.1,22.1,0,0,1,.33-5.208,6.091,6.091,0,0,1,.3-.949c-.164.371.136-.184.194-.287.177-.313-.233.3-.031.02.055-.075.133-.13.188-.2.222-.3.028-.053-.079.027.117-.087.252-.152.37-.237.439-.317-.209.027.158-.077.24-.068.478-.126.721-.181.4-.09-.32,0,.249-.024.321-.01.64-.032.962-.033,3.411-.013,6.822.256,10.239.239,2.258-.011,4.517-.048,6.775-.075a5.958,5.958,0,0,1,1.374,0c-.017,0-.336-.108-.294-.157a5.814,5.814,0,0,0-.041,1.793c.057,3.631.1,7.263.106,10.895l2.4-2.4c-3.732.019-7.477.394-11.2.587-2.064.107-4.129.212-6.195.239-.993.012-1.987.036-2.979.025a9.681,9.681,0,0,1-2.8-.3,2.468,2.468,0,0,0-3.284.861,2.421,2.421,0,0,0,.861,3.284c2.316,1.1,4.906.962,7.408.94,2.113-.018,4.222-.1,6.333-.21,3.944-.2,7.908-.6,11.859-.621a2.435,2.435,0,0,0,2.4-2.4c0-3.9-.052-7.8-.119-11.7-.041-2.38-.623-4.725-3.22-5.448a13.184,13.184,0,0,0-3.67-.168c-1.39.018-2.78.038-4.17.051-2.571.023-5.145.037-7.715-.06-1.568-.059-3.145-.228-4.715-.153-3.394.161-5.977,1.833-6.945,5.2a26.3,26.3,0,0,0-.568,7.679c.054,2.743.7,5.314,3.122,6.889C334.491,124.779,336.9,120.625,334.315,118.947Z"/><path class="a" d="M354.261,121.216a108.606,108.606,0,0,0,1.249,13.357q.929,7.209,2.069,14.39c1.043,6.512,2.551,12.96,3.286,19.519a153.98,153.98,0,0,1,.553,23.121,18.477,18.477,0,0,1-.4,3.633q-.095.393-.22.777c-.238.721.195-.3-.133.333a3.9,3.9,0,0,1-.349.579c.4-.526-.531.515-.033.027-.06.059-.654.328-.185.142a3.985,3.985,0,0,1-.662.175c.487-.1-.287.033-.317.036-.254.029-.507.057-.761.084-1.246.133-2.494.242-3.743.339-5.656.437-11.341.654-17.013.586-2.411-.029-4.829-.1-7.228-.351-.247-.026-.493-.053-.739-.083-.758-.095.434.113-.274-.041a1.7,1.7,0,0,1-1.207-.644,2.026,2.026,0,0,1-.2-1.228c.025-1.126,0-2.255.017-3.382.086-7.173.534-14.333,1.115-21.482.309-3.813.649-7.623.953-11.437a106.3,106.3,0,0,1,1.266-11.607c1.648-8.63,4.648-16.928,6.488-25.512.646-3.013-3.98-4.3-4.628-1.276-1.71,7.976-4.414,15.7-6.117,23.678-1.56,7.309-1.81,14.825-2.438,22.256s-1.2,14.87-1.383,22.329q-.077,3.093-.073,6.188a6.815,6.815,0,0,0,1.721,4.985c1.973,2.056,5.018,2.065,7.678,2.233a151.242,151.242,0,0,0,17.775-.131c2.682-.147,5.363-.335,8.034-.62,2.61-.277,4.929-.762,6.342-3.218,1.446-2.513,1.5-5.731,1.554-8.548.082-4.035.075-8.083,0-12.118-.166-8.464-1.528-16.663-3.058-24.967a259.391,259.391,0,0,1-4.022-29.5c-.058-.872-.1-1.744-.106-2.618-.012-3.088-4.812-3.094-4.8,0Z"/><path class="a" d="M343.459,122.324v18.394c0,3.088,4.8,3.094,4.8,0V122.324c0-3.089-4.8-3.094-4.8,0Z"/><path class="a" d="M335.889,56.691c.573,9.608,1.66,19.209,2.625,28.783.182,1.806.356,3.613.574,5.414a2.475,2.475,0,0,0,2.4,2.4,2.413,2.413,0,0,0,2.4-2.4c-1.139-9.425-1.917-18.911-2.738-28.368-.168-1.941-.345-3.884-.461-5.829-.183-3.07-4.985-3.091-4.8,0Z"/><path class="a" d="M350.016,74.3c-1.138,5.718-1.234,11.592-1.946,17.367a2.413,2.413,0,0,0,2.4,2.4,2.46,2.46,0,0,0,2.4-2.4c.667-5.407.782-11.105,1.775-16.091a2.461,2.461,0,0,0-1.676-2.952,2.424,2.424,0,0,0-2.953,1.676Z"/><path class="a" d="M322.385,28.413a49.155,49.155,0,0,0,.345,6.663c.278,3.089.619,6.173.978,9.254.745,6.39,1.244,12.817,2.041,19.2,1.209,9.675,3.352,19.219,5.174,28.789a84.282,84.282,0,0,1,1.873,12.559c.115,3.079,4.915,3.094,4.8,0a81.243,81.243,0,0,0-1.611-11.515c-.774-4.226-1.641-8.433-2.469-12.649-.981-4.989-1.9-10.007-2.665-15.035-.95-6.269-1.314-12.642-2.06-18.941-.417-3.527-.827-7.054-1.162-10.59a55.1,55.1,0,0,1-.444-7.732c.147-3.088-4.654-3.08-4.8,0Z"/><path class="a" d="M324.785,30.813a70.483,70.483,0,0,0,11.528-1.046c1.689-.3,3.266-1.158,4.958-1.39,1.086-.149,2.263.714,3.615,1.119a18.8,18.8,0,0,0,4.991.439q2.541.054,5.085.066c3.217.015,6.441,0,9.653-.2,3.068-.191,3.09-4.993,0-4.8-3.144.2-6.3.215-9.447.2q-2.547-.009-5.1-.063a13.373,13.373,0,0,1-4.642-.528c-1.442-.55-2.657-1.182-4.25-1.032a31.913,31.913,0,0,0-5.095,1.327,37.818,37.818,0,0,1-5.713.737c-1.858.192-3.719.355-5.588.37-3.088.024-3.1,4.824,0,4.8Z"/><path class="a" d="M365.42,186.75q29.469-.055,58.94-.109,6.094-.007,12.19-.009c3.089,0,3.094-4.8,0-4.8q-26.861,0-53.72.084l-17.41.034c-3.089.006-3.094,4.806,0,4.8Z"/><path class="a" d="M418.5,99.693h-8.009a2.435,2.435,0,0,0-2.4,2.4c0,6.656.011,13.313-.009,19.969a2.435,2.435,0,0,0,2.4,2.4c2.726,0,5.452.077,8.178.08,3.088,0,3.093-4.8,0-4.8-2.726,0-5.452-.076-8.178-.08l2.4,2.4c.02-6.656.009-13.313.009-19.969l-2.4,2.4H418.5c3.088,0,3.094-4.8,0-4.8Z"/><path class="a" d="M436.55,37.441q-25.932,0-51.864-.062l-18.713-.024c-3.089,0-3.093,4.8,0,4.8q30.9.041,61.809.079,4.385.006,8.768.007c3.089,0,3.094-4.8,0-4.8Z"/><path class="a" d="M429.2,48.015q-27.664-.036-55.329-.1-4.226-.008-8.45-.011c-3.088,0-3.093,4.8,0,4.8,16.282,0,32.564.059,48.846.088l14.933.024c3.089,0,3.094-4.8,0-4.8Z"/><path class="a" d="M436.55,48.02q-3.682,0-7.365-.005a2.4,2.4,0,1,0,0,4.8q3.682,0,7.365.005a2.4,2.4,0,0,0,0-4.8Z"/><path class="a" d="M422.515,173.6c0-4.612-.023-9.224-.036-13.836q-.042-14.51-.085-29.019-.051-17.192-.1-34.381-.043-14.916-.083-29.83c-.014-5.235.061-10.479-.033-15.713,0-.156,0-.313,0-.469.018-3.09-4.782-3.093-4.8,0-.025,4.426.013,8.853.024,13.279q.038,14.367.08,28.733.048,17.182.1,34.365.045,15.041.088,30.083.024,8.118.044,16.236c0,.184,0,.368,0,.552,0,3.089,4.8,3.094,4.8,0Z"/><path class="a" d="M431.363,173.7c0-4.614-.023-9.227-.036-13.84q-.042-14.514-.085-29.027-.051-17.2-.1-34.391Q431.1,81.52,431.058,66.6c-.014-5.237.062-10.481-.033-15.717,0-.156,0-.313,0-.469.018-3.09-4.782-3.093-4.8,0-.025,4.427.013,8.855.024,13.283q.037,14.37.08,28.74.05,17.187.1,34.375.045,15.045.088,30.091.024,8.12.044,16.24c0,.184,0,.368,0,.553,0,3.088,4.8,3.093,4.8,0Z"/><path class="a" d="M429.35,175.98c2.4,0,4.8-.013,7.2-.013a2.4,2.4,0,0,0,0-4.8c-2.4,0-4.8.009-7.2.013a2.4,2.4,0,0,0,0,4.8Z"/><path class="a" d="M364.817,176.131q26.067-.06,52.133-.124,6.243-.015,12.486-.027c3.088-.006,3.094-4.806,0-4.8q-25.4.049-50.795.118-6.912.018-13.824.033c-3.088.007-3.094,4.807,0,4.8Z"/><path class="b" d="M256.245,74.776a64.833,64.833,0,0,0-6.464-5.033c-.151-.111-.3-.215-.466-.322a46.447,46.447,0,0,0-10.046-5.08,60.845,60.845,0,0,0-22.81-4.177,53.679,53.679,0,0,0-35.312,12.67C168.108,84.34,160.285,100.35,162.295,126.5c2.81,19.632-3.458,40.8-1.992,56.983.425,4.856,2.845,10.7,9.569,15.317,0,0,21.768,7.671,46.36,7.671s49.687-9.092,49.687-9.092c10.483-3.887,10.655-10.483,10.738-14.321a40.479,40.479,0,0,0-2.063-13.911c-1.857-6.152-5.259-18.643-4.825-40.728l0,0c.788-6.374.494-15.633.351-19.193-.5-12.34-5.717-26.284-13.628-34.211-.074-.075-.162-.155-.251-.233"/><path class="c" d="M250.992,67.671c-5.85-4.175-13.07-6.842-20.058-8.381a65.573,65.573,0,0,0-23.847-.8,55.111,55.111,0,0,0-32.372,17.3c-8.258,9.056-12.918,20.284-14.487,32.371a81.658,81.658,0,0,0-.646,10.839c.017,4.1.512,8.1.816,12.179.621,8.3-.1,16.632-.972,24.888-.808,7.673-1.857,15.383-1.741,23.114a30.644,30.644,0,0,0,1.218,9.317,23.182,23.182,0,0,0,5.132,8.485,29.433,29.433,0,0,0,4.625,3.893,2.421,2.421,0,0,0,3.284-.861,2.449,2.449,0,0,0-.861-3.283,20.708,20.708,0,0,1-6.527-7.151,17.881,17.881,0,0,1-1.953-7.382c-.468-7.182.363-14.4,1.13-21.537a206.322,206.322,0,0,0,1.692-23.869c-.035-3.981-.589-7.877-.839-11.836a95.086,95.086,0,0,1-.085-10.967c.6-11.378,3.943-22.641,10.945-31.661A50.256,50.256,0,0,1,202.4,64.365a58.376,58.376,0,0,1,41.257,4.507,43.334,43.334,0,0,1,4.913,2.944,2.419,2.419,0,0,0,3.283-.861,2.451,2.451,0,0,0-.861-3.284Z"/><path class="c" d="M266.557,199.689c5.084-1.928,9.687-5.006,11.581-10.314,1.529-4.285,1.093-9.6.417-13.96-.654-4.224-2.142-8.254-3.156-12.4a104.786,104.786,0,0,1-2.254-12.5,162.073,162.073,0,0,1-.976-22.105l-1.762,2.314h0a2.531,2.531,0,0,0,1.762-2.315,108.472,108.472,0,0,0,.237-21.113,61.421,61.421,0,0,0-6.782-23.623,39.539,39.539,0,0,0-7.686-10.6c-2.259-2.1-5.661,1.284-3.394,3.394,5.309,4.938,8.659,12.16,10.744,18.987,2.032,6.651,2.531,13.346,2.6,20.255a98.781,98.781,0,0,1-.517,12.7l1.762-2.314,0,0a2.48,2.48,0,0,0-1.762,2.314,144.6,144.6,0,0,0,2.84,33.453c.684,3.136,1.6,6.191,2.473,9.275a38.807,38.807,0,0,1,1.578,9.616c.028,1.088.014,2.179-.029,3.266-.012.293-.027.586-.048.878-.014.185-.032.369-.048.553-.058.69.036-.1-.038.319a9.585,9.585,0,0,1-1.914,4.7,15.772,15.772,0,0,1-6.9,4.584,2.47,2.47,0,0,0-1.676,2.953,2.418,2.418,0,0,0,2.952,1.676Z"/><path class="d" d="M191.693,185.491c2.112-.827,4.4-1.735,7.191-2.971a6.951,6.951,0,0,0,1.669-1.069A40.508,40.508,0,0,0,223.088,181a43.907,43.907,0,0,0,16.967-10.27,53.772,53.772,0,0,0,4.171-4.225,63.85,63.85,0,0,0,4.121,10.484c.962,1.946,8.5,7.739,12.408,9.92-16.526,7.257-33.921,12.141-53.894,10.275-6.718-.627-15.7-3.5-20.792-9.341-.018-.021-.037-.041-.055-.061l.077-.03C187.98,186.938,189.763,186.248,191.693,185.491Z"/><path class="d" d="M186.121,112.581c2.864-2.574,5.694-5.181,8.427-7.733-.212,3.111-.544,6.105-1.05,9.23a1.063,1.063,0,0,0,1.377,1.19c11.672-3.971,22.414-10.787,29.389-19.4a129.971,129.971,0,0,0,5.926,13.794c2.8,5.519,9.849,15.067,16.041,16.708,1.623.611,3.735,1.215,5.358,1.826,2.728-2.665,7.419-2.672,10.53-.466a11.748,11.748,0,0,1,4.518,10,19.4,19.4,0,0,1-4.063,10.515,27.977,27.977,0,0,1-11.743,8.994,54.34,54.34,0,0,1-10.776,13.493A43.907,43.907,0,0,1,223.088,181a40.508,40.508,0,0,1-22.535.451,40.015,40.015,0,0,1-11.273-4.891,38.658,38.658,0,0,1-10.241-10.047,52.466,52.466,0,0,1-7.836-15.531,72.682,72.682,0,0,1-3.235-15.562c-.348-3-.487-5.541-.543-7.376,1.087-.8,2.471-1.9,3.718-2.776C176.025,121.455,181.126,117.069,186.121,112.581Z"/><path class="e" d="M313.036,299.512c-4.222-28.222-7.111-45.778-14.222-71.555a77.313,77.313,0,0,0-11.778-23.778,47.282,47.282,0,0,0-9.029-8.816,68.942,68.942,0,0,0-15.351-8.609,2,2,0,0,0-1.589.014c-16.618,7.336-34.107,12.293-54.206,10.416-6.718-.627-15.7-3.5-20.792-9.341a1.986,1.986,0,0,0-2.217-.544c-3.712,1.44-7.26,2.934-10.894,4.549a38.6,38.6,0,0,0-8.71,5.54,27.877,27.877,0,0,0-8.34,12.579,165.884,165.884,0,0,0-6.751,25.678c-1.97,10.81-3.7,20.24-6.34,30.87,0,0-.117.613-.306,1.6,5.241.166,9.619.3,12.758.4A5.992,5.992,0,0,1,161,273.5c1.53,8.958,3.086,18.032,4.7,27.408.074.425.146.843.22,1.268,6-9.1,9.837-18.253,14.311-27.017,1.8,3.652,3.885,7.176,5.589,10.875a48.272,48.272,0,0,1,2.554,7.11c.13.461.284.911.456,1.357,1.115,2.888.958,7.805,3.162,13.016a104.877,104.877,0,0,1,9.473-5.458c4.07-2.07,8.63-3.91,13.08-2.95,5.68,1.23,8.433,3.739,14.073,5.119,4.123,1.015,6.362,0,9.926-.019,5,9.624,7.158,25.618,7.255,28.343,5.037-.074,28.5-.445,36.1-1.218,5.992-.61,12.136-.744,17.751-2.921a24.9,24.9,0,0,0,4.4-2.223,17.991,17.991,0,0,0,7.959-10.056A52.831,52.831,0,0,0,313.036,299.512Z"/><path class="c" d="M262.949,255.083q5.326,19.564,9.72,39.366c.669,3.014,5.3,1.738,4.629-1.276q-4.393-19.8-9.72-39.366c-.811-2.978-5.442-1.714-4.629,1.276Z"/><path class="c" d="M245.184,296.874c12.944,1.158,26.1-.249,39.037-.963,3.072-.17,3.092-4.971,0-4.8-12.932.714-26.093,2.121-39.037.963a2.417,2.417,0,0,0-2.4,2.4,2.451,2.451,0,0,0,2.4,2.4Z"/><path class="c" d="M171.4,239.409a35.294,35.294,0,0,1,.685,6.2c.186,2.312.318,4.627.476,6.941a83.21,83.21,0,0,0,1.785,13.656,55.073,55.073,0,0,0,5.151,12.779c2.08,3.952,4.313,7.828,5.731,12.082a50.884,50.884,0,0,1,1.953,6.647c.455,2.448.767,4.9,1.415,7.315.8,2.98,5.433,1.715,4.629-1.276-.582-2.163-.91-4.363-1.284-6.567a47.094,47.094,0,0,0-1.518-5.593,68.4,68.4,0,0,0-5.5-12.629,63.082,63.082,0,0,1-5.481-12.257,65.113,65.113,0,0,1-2.012-13.232c-.188-2.621-.33-5.246-.541-7.866a42.321,42.321,0,0,0-.857-7.473c-.792-2.983-5.423-1.717-4.628,1.276Z"/><path class="c" d="M177.944,274.356c-4.008,7.915-7.6,16.039-12.209,23.635-1.608,2.648,2.541,5.063,4.144,2.423,4.613-7.6,8.2-15.72,12.21-23.635,1.392-2.75-2.747-5.183-4.145-2.423Z"/><path class="c" d="M241.917,167.141a63.172,63.172,0,0,0,3.251,8.705,16.445,16.445,0,0,0,1.418,2.837,13.957,13.957,0,0,0,1.811,2.022,59.991,59.991,0,0,0,10.743,8.04c2.669,1.568,5.087-2.579,2.422-4.144a54.085,54.085,0,0,1-9.613-7.143,18.107,18.107,0,0,1-1.51-1.575c.16.189.245.4.084.077-.079-.162-.169-.32-.249-.481-.308-.625-.6-1.257-.888-1.892a55.163,55.163,0,0,1-2.841-7.722c-.835-2.969-5.468-1.707-4.628,1.276Z"/><path class="c" d="M187.3,189.825l.389-.166c.618-.265-.258.1.1-.042.255-.1.509-.211.764-.315q.853-.35,1.713-.687c1.152-.456,2.307-.9,3.459-1.36q2.068-.82,4.116-1.688a15.39,15.39,0,0,0,4.376-2.427,2.413,2.413,0,0,0,0-3.394,2.46,2.46,0,0,0-3.394,0c-.072.063-.288.239-.088.089-.13.1-.269.187-.408.271a8.628,8.628,0,0,1-1.048.516q-.505.222-1.011.439l-.61.26-.138.058q-1.834.765-3.686,1.49c-2.327.917-4.657,1.823-6.955,2.812a2.4,2.4,0,0,0-.861,3.283,2.474,2.474,0,0,0,3.283.861Z"/><path class="c" d="M253.286,129.888c2.088-1.936,5.548-1.712,7.719-.017,2.6,2.031,3.541,5.637,3.165,8.8-.924,7.773-7.764,13.533-14.5,16.473a2.417,2.417,0,0,0-.861,3.284,2.462,2.462,0,0,0,3.284.861c7.083-3.091,13.156-8.616,15.848-15.982,2.541-6.955.471-16.03-7.014-18.877a10.736,10.736,0,0,0-11.033,2.064c-2.27,2.106,1.131,5.494,3.394,3.394Z"/><path class="c" d="M165.027,128.216a83.648,83.648,0,0,0,4.906,26.372c3.117,8.314,8.219,16.447,15.278,21.978,13.866,10.865,34.229,11.4,48.921,1.88a58.858,58.858,0,0,0,18.793-20.033c1.536-2.685-2.61-5.106-4.145-2.422a54.925,54.925,0,0,1-14.708,16.663,38.221,38.221,0,0,1-43.512,1.878c-6.9-4.461-12.048-11.762-15.22-19.247a76.412,76.412,0,0,1-5.513-27.069c-.111-3.08-4.912-3.1-4.8,0Z"/><path class="c" d="M222.046,96.776c2.217,6.142,4.731,12.545,8.4,17.987,3.414,5.062,7.875,10.621,13.538,13.258a2.469,2.469,0,0,0,3.283-.861,2.419,2.419,0,0,0-.861-3.284c-5.041-2.348-8.992-7.281-12-11.816-3.346-5.041-5.683-10.894-7.729-16.56a2.463,2.463,0,0,0-2.952-1.676,2.419,2.419,0,0,0-1.676,2.952Z"/><path class="c" d="M222.554,94.181a54.573,54.573,0,0,1-12.617,11.173,70.411,70.411,0,0,1-7.648,4.3c-1.337.648-2.693,1.26-4.071,1.817a22.59,22.59,0,0,1-4.3,1.536h1.276q.654,2.013.736.969c.026-.164.051-.327.075-.49q.09-.608.173-1.217c.118-.857.23-1.714.329-2.573.187-1.613.329-3.231.443-4.851.154-2.18-2.674-3.025-4.1-1.7-4.5,4.2-9.038,8.35-13.687,12.379A120.86,120.86,0,0,1,166.1,125.976c-2.584,1.673-.181,5.83,2.422,4.144A127.651,127.651,0,0,0,182.2,119.234c4.774-4.126,9.431-8.385,14.044-12.689l-4.1-1.7c-.179,2.545-.428,5.086-.81,7.609a5.178,5.178,0,0,0,.172,3.458,3.527,3.527,0,0,0,3.044,1.809,9.147,9.147,0,0,0,2.961-.854c1.061-.394,2.112-.815,3.155-1.254,2.01-.844,3.99-1.754,5.924-2.761a61.583,61.583,0,0,0,19.354-15.28,2.471,2.471,0,0,0,0-3.394,2.418,2.418,0,0,0-3.394,0Z"/><path class="d" d="M181.848,328.866c-.005-.116-.006-.231,0-.342a4.824,4.824,0,0,1,1.228-3.1l.886-1.125-1.152.243a4.339,4.339,0,0,1-4.54-1.69c-.84-1.24-.31-3.33.06-4.08a11.906,11.906,0,0,1,2.23-2.72c1.01-1,5.39-4.35,6.53-5.18a105.827,105.827,0,0,1,14.37-8.82c4.07-2.07,8.63-3.91,13.08-2.95,5.68,1.23,8.433,3.739,14.073,5.119,3.972.978,6.2.076,9.54-.012,3.278,6.316,5.336,15.376,6.391,21.627l-.693.206c-1.427.6-5.035,2.836-9.188,4.559a15.173,15.173,0,0,1-11.676-.051,85.215,85.215,0,0,1-10.649,9.971c-.712.571-3.073,2.307-5,.675-1.265-1.073-.969-3.528-.345-4.484,3-4.607,4.282-8.023,7.606-12.269-5.511,3.424-10.812,7.432-16.3,10.909-1.785,1.13-3.274,2.112-5.355,1.747a3.826,3.826,0,0,1-3.219-3.985,5.932,5.932,0,0,1,1.067-2.8l-1.653.768a11,11,0,0,1-3.209,1.063,3.973,3.973,0,0,1-3.219-.948A3.9,3.9,0,0,1,181.848,328.866Z"/><path class="c" d="M182.172,322.231a2.385,2.385,0,0,1-1.493-.274c-.666-.455-.483-1.209-.28-1.9.147-.5.059-.191,0-.072a4.251,4.251,0,0,1,.366-.621,9.839,9.839,0,0,1,1.024-1.147,19.721,19.721,0,0,1,1.555-1.42,103.1,103.1,0,0,1,9.461-6.964c4.53-2.958,9.449-6.077,14.624-7.759a13.116,13.116,0,0,1,7.763-.342,45.224,45.224,0,0,1,6.52,2.549,30.536,30.536,0,0,0,8.35,2.633c2.705.355,5.31-.194,8.008-.3,3.078-.122,3.094-4.923,0-4.8-2.557.1-5.132.736-7.69.332a31.592,31.592,0,0,1-7.913-2.76,31.645,31.645,0,0,0-8.155-2.746,18.65,18.65,0,0,0-9.422,1.256,81.485,81.485,0,0,0-17.156,9.582,63.629,63.629,0,0,0-9.34,7.347c-2.076,2.134-3.688,5.016-2.722,8.091,1.034,3.292,4.664,4.5,7.773,3.944a2.422,2.422,0,0,0,1.676-2.953,2.454,2.454,0,0,0-2.952-1.676Z"/><path class="c" d="M199.241,309.947a120.812,120.812,0,0,0-12.731,9.011c-3.5,2.778-8.323,6.482-6.787,11.627a5.394,5.394,0,0,0,4.239,3.839c2.282.426,4.338-.33,6.388-1.27a2.419,2.419,0,0,0,.861-3.284,2.457,2.457,0,0,0-3.284-.861,10.262,10.262,0,0,1-1.8.659,2.352,2.352,0,0,1-1.163.072c-.106-.024-.608-.228-.444-.146.135.068-.087-.095-.13-.183a2.02,2.02,0,0,1-.123-1.182c-.029.219.093-.338.121-.418-.057.162.213-.4.3-.526.133-.208.412-.807.652-.935-.142.076-.394.458-.1.147.1-.111.2-.226.3-.336.23-.244.47-.478.714-.709a81.456,81.456,0,0,1,9.721-7.6c1.859-1.307,3.742-2.586,5.69-3.757,2.645-1.589.234-5.741-2.423-4.144Z"/><path class="c" d="M207.088,314.907c-3.626,2.281-7.115,4.761-10.606,7.241-3.18,2.261-6.636,4.373-8.362,8.043-1.639,3.486-.4,7.64,3.4,9.006,4.079,1.468,7.85-1.627,11.032-3.756,4.172-2.79,8.238-5.737,12.474-8.43,2.6-1.653.2-5.809-2.422-4.145-3.98,2.531-7.81,5.283-11.718,7.922a37.685,37.685,0,0,1-5.858,3.7c-.916.392-2.258.447-2.733-.442-.535-1,.212-2.116.994-3.159a20.372,20.372,0,0,1,4.873-4.07c3.739-2.654,7.464-5.326,11.346-7.768,2.608-1.641.2-5.8-2.422-4.145Z"/><path class="c" d="M211.82,324.178a76.327,76.327,0,0,0-4.589,7.5c-1.366,2.406-3.384,4.691-3.151,7.63a5.243,5.243,0,0,0,2.265,4.126,5.41,5.41,0,0,0,4.689.529,10.526,10.526,0,0,0,3.244-1.943q1.863-1.5,3.659-3.079a81.788,81.788,0,0,0,7.2-7.2,2.457,2.457,0,0,0,0-3.394,2.422,2.422,0,0,0-3.394,0q-2.568,2.913-5.4,5.572-1.471,1.375-3.006,2.681-.741.632-1.492,1.25-.415.342-.834.681a2.472,2.472,0,0,1-.364.293c.152-.077.475-.338.129-.1a10.979,10.979,0,0,1-1.007.612c-.357.191.2-.006-.21.071-.142.026-.279.079-.422.1.336-.056.087.043-.019-.028.024.016.528.193-.032-.007-.013,0-.34-.15-.159-.055.274.144-.152-.28.115.146-.148-.236-.131-.451-.087-.115a2.554,2.554,0,0,1-.076-.285q-.054-.264.007.148l-.014-.2c0-.2,0-.4.008-.6.008-.453.013-.031-.011.062.023-.089.033-.182.061-.27s.053-.172.071-.257c.086-.4-.013.039-.064.122.162-.26.319-.525.484-.784.71-1.114,1.378-2.254,2.029-3.4a74.667,74.667,0,0,1,4.52-7.385,2.417,2.417,0,0,0-.861-3.283,2.454,2.454,0,0,0-3.283.861Z"/><path class="c" d="M223.766,333.39a18.264,18.264,0,0,0,12.61-.926c2.98-1.282,5.719-3.059,8.686-4.346a2.416,2.416,0,0,0,.861-3.284,2.462,2.462,0,0,0-3.284-.861c-2.635,1.143-5.079,2.721-7.7,3.911a13.769,13.769,0,0,1-9.9.878c-2.967-.884-4.234,3.747-1.276,4.628Z"/><path class="c" d="M145.132,267.153c1.835-7.416,3.373-14.9,4.782-22.406,1.405-7.491,2.693-14.989,4.662-22.359q1.469-5.5,3.332-10.888a31.938,31.938,0,0,1,4.3-8.541c4.139-5.629,10.774-8.619,17.022-11.228,1.6-.666,3.226-1.263,4.815-1.945.334-.143.71-.161.269-.308.142.047.435.482.538.592a20.722,20.722,0,0,0,1.841,1.727,31,31,0,0,0,7.778,4.672c5.869,2.494,12.054,3.3,18.389,3.479,14.069.391,27.957-2.623,41.047-7.642q2.166-.83,4.307-1.724,1.26-.526,2.516-1.066c1.031-.444.957-.591,1.947-.155a78.893,78.893,0,0,1,9.489,4.882,47.6,47.6,0,0,1,14.521,13.518,74.257,74.257,0,0,1,8.828,17.668c2.161,6.3,3.625,12.91,5.171,19.384,2.988,12.509,5.319,25.152,7.35,37.849q.836,5.223,1.626,10.454a81.4,81.4,0,0,1,1.212,9.274,58.289,58.289,0,0,1-.368,8.55,19.382,19.382,0,0,1-1.809,7.02c-2.881,5.38-8.678,8.291-14.433,9.52a93.986,93.986,0,0,1-11.024,1.32c-1.895.175-3.786.341-5.687.449-9.238.525-18.5.675-27.754.835q-2,.035-4,.064l2.4,2.4A69.323,69.323,0,0,0,246.7,322.2a81.937,81.937,0,0,0-4.353-15.38,31.731,31.731,0,0,0-4.035-7.48,2.48,2.48,0,0,0-3.283-.861,2.416,2.416,0,0,0-.861,3.284c3.829,4.962,5.565,11.424,6.984,17.437q1.015,4.313,1.7,8.694.136.875.257,1.75c-.085-.617.026.209.04.322.029.228.057.457.083.685.072.632.142,1.265.167,1.9a2.441,2.441,0,0,0,2.4,2.4c8.764-.13,17.53-.3,26.288-.643,4.64-.183,9.242-.539,13.867-.943,7.14-.623,14.486-1.549,20.444-5.887a21.516,21.516,0,0,0,6.448-7.093,23.828,23.828,0,0,0,2.339-8.4,60.37,60.37,0,0,0,.512-8.934,75.922,75.922,0,0,0-1.193-9.834c-2.046-13.509-4.2-27.008-7.073-40.37q-2.151-10.01-4.781-19.908a97.352,97.352,0,0,0-7.094-19.536,57.446,57.446,0,0,0-12.124-16.654,67.148,67.148,0,0,0-18.737-11.709,5.1,5.1,0,0,0-5.608,0q-2.423,1.058-4.88,2.03c-3.268,1.294-6.58,2.48-9.938,3.52a100.361,100.361,0,0,1-20.711,4.233c-6.762.6-13.982.792-20.649-.673a34.8,34.8,0,0,1-8.374-2.912,26.71,26.71,0,0,1-3.778-2.309c-1.206-.9-2.129-2.036-3.241-3.023-1.543-1.369-3.38-1.279-5.185-.57q-2.922,1.149-5.811,2.377a56.255,56.255,0,0,0-10.062,5.046,33.323,33.323,0,0,0-7.907,7.14,34.168,34.168,0,0,0-4.817,9.058c-5.443,14.828-7.436,30.471-10.686,45.845q-1.176,5.562-2.54,11.08c-.742,3,3.886,4.278,4.629,1.276Z"/><path class="c" d="M202.028,144.784a23.98,23.98,0,0,0-.86,2.516c-.419,1.424-.923,3.215.269,4.42a3.965,3.965,0,0,0,.88.637,4.2,4.2,0,0,0,1.035.4,7.257,7.257,0,0,0,1.479.1,2.471,2.471,0,0,0,1.7-.7,2.4,2.4,0,0,0,0-3.394,2.512,2.512,0,0,0-1.7-.7,6.344,6.344,0,0,1-.78-.006l.638.086a1.972,1.972,0,0,1-.384-.107l.574.242a2.547,2.547,0,0,1-.516-.309l.486.375a.1.1,0,0,1-.018-.017l.376.485a.236.236,0,0,1-.022-.038l.242.574a.414.414,0,0,1-.021-.091l.085.638a1.7,1.7,0,0,1,.015-.377l-.085.638A13.392,13.392,0,0,1,206,147.9c.2-.62.4-1.245.652-1.844a2.4,2.4,0,0,0-.241-1.85,2.4,2.4,0,0,0-3.284-.861l-.486.376a2.4,2.4,0,0,0-.617,1.059Z"/><path class="c" d="M184.061,134.248c-.68,2.13-.376,7.068,3.507,7.563,5.145.067,5.55-5.887,3.88-8.723C190.081,130.766,185.932,129.731,184.061,134.248Z"/><path class="c" d="M228.217,134.428c.643,2.253.087,7.393-4.162,7.743-5.605-.15-5.774-6.382-3.827-9.27C221.822,130.537,226.385,129.634,228.217,134.428Z"/><path class="c" d="M199.84,166.041a17.777,17.777,0,0,0,7.348.671,20.745,20.745,0,0,0,7.884-2.245,2.422,2.422,0,0,0,.861-3.284,2.451,2.451,0,0,0-3.283-.861c-.22.119-.441.234-.667.341-.006,0-.551.249-.238.113.28-.123-.111.042-.162.062q-.79.3-1.608.529-.837.231-1.693.387c-.135.025-.27.048-.405.07-.053.009-.492.079-.191.033s-.138.016-.191.022c-.17.02-.34.037-.511.052a19.514,19.514,0,0,1-3.288.026c-.158-.012-.316-.029-.474-.044-.418-.039.08.025.084.016a5.163,5.163,0,0,1-.714-.122,11.551,11.551,0,0,1-1.476-.395,2.416,2.416,0,0,0-2.952,1.676,2.458,2.458,0,0,0,1.676,2.953Z"/><path class="c" d="M237.107,334.738c-17.446,10.7-35.155,21.006-52.928,31.156-2.863,1.636-5.723,3.283-8.628,4.844-2.722,1.463-.3,5.608,2.423,4.145,6.454-3.468,12.772-7.207,19.111-10.878q14.247-8.253,28.4-16.662,7.044-4.191,14.042-8.46c2.628-1.613.22-5.766-2.423-4.145Z"/><path class="d" d="M28.838,269.4c4.819,28.211,9.906,57.618,16.393,94.853a4.138,4.138,0,0,0,3.7,3.417c22.379,1.992,98.063,5.27,124.379,6.121a4.128,4.128,0,0,0,4.195-4.842C171.027,331.867,165.88,302.1,161,273.5a5.992,5.992,0,0,0-5.726-4.986c-21.583-.653-101.349-3.248-122.244-3.921A4.115,4.115,0,0,0,28.838,269.4Z"/><path class="c" d="M26.524,270.039q4.928,28.848,9.932,57.682,2.883,16.634,5.78,33.264c.459,2.633.576,5.5,2.7,7.412,1.5,1.355,3.295,1.618,5.227,1.78,2.221.187,4.443.35,6.666.5,13.5.939,27.029,1.62,40.549,2.287q23.492,1.16,46.993,2.124,9.775.4,19.553.77,3.885.144,7.77.275a8.969,8.969,0,0,0,5-.81,6.6,6.6,0,0,0,3.273-5.712,27.459,27.459,0,0,0-.661-4.243l-.8-4.59q-.762-4.366-1.522-8.732-1.417-8.137-2.831-16.274-2.66-15.314-5.3-30.629-2.472-14.337-4.924-28.677c-.376-2.2-.529-4.559-1.77-6.487a8.376,8.376,0,0,0-5.573-3.73,50.929,50.929,0,0,0-6.656-.308q-18.637-.579-37.274-1.185-22.628-.726-45.255-1.46L34.05,262.222a7.6,7.6,0,0,0-4.756,1.055,6.526,6.526,0,0,0-2.856,6.124,2.479,2.479,0,0,0,2.4,2.4,2.413,2.413,0,0,0,2.4-2.4c-.192-1.5.511-2.436,2.052-2.4.858.018,1.715.055,2.572.083l6.512.21,17.23.558q21.483.7,42.965,1.388,19.938.642,39.876,1.274l7.207.226c1.908.059,3.89-.03,5.788.183a3.623,3.623,0,0,1,3.089,2.553,53.893,53.893,0,0,1,1.193,6.755q1.156,6.761,2.318,13.518,5.159,30.03,10.394,60.046.72,4.134,1.441,8.267l.717,4.1c.2,1.137.766,2.629.566,3.779-.231,1.325-1.418,1.464-2.555,1.427l-3.345-.114q-8.63-.3-17.257-.652-22.254-.89-44.5-1.944c-14.172-.672-28.344-1.375-42.506-2.246-4.894-.3-9.789-.614-14.675-1.022-1.005-.084-2.086-.053-2.6-1.105a15.612,15.612,0,0,1-.729-3.849q-.378-2.171-.755-4.341-1.434-8.232-2.864-16.466-5.028-28.944-10-57.9-1.111-6.485-2.219-12.969a2.42,2.42,0,0,0-2.953-1.676A2.455,2.455,0,0,0,26.524,270.039Z"/><path class="c" d="M319.879,327.21c4.056,0,8.112-.022,12.168-.034l26.814-.082,32.333-.1,28.724-.087q8-.022,15.989-.042h.643c3.089,0,3.094-4.8,0-4.8-4.594,0-9.188.021-13.783.034l-27.645.083-32.381.1-27.99.087c-4.82.014-9.652-.07-14.471.042-.134,0-.268,0-.4,0-3.089,0-3.094,4.8,0,4.8Z"/><path class="c" d="M2.318,327.208c8.731-.009,17.459-.336,26.19-.341,3.089,0,3.094-4.8,0-4.8-8.731,0-17.459.332-26.19.341-3.088,0-3.093,4.8,0,4.8Z"/></svg>