<?xml version="1.0" encoding="utf-8"?><!-- Uploaded to: SVG Repo, www.svgrepo.com, Generator: SVG Repo Mixer Tools -->
<svg width="800px" height="800px" viewBox="0 0 24 24" fill="none" xmlns="http://www.w3.org/2000/svg">
<circle cx="12" cy="12" r="8" stroke="#000000" stroke-width="2"/>
<path fill-rule="evenodd" clip-rule="evenodd" d="M15.5349 8.46449L10.5852 10.5858L8.46387 15.5356L13.4136 13.4142L15.5349 8.46449ZM10.9996 13C11.5519 13.5523 12.4474 13.5523 12.9997 13C13.5519 12.4477 13.5519 11.5523 12.9997 11C12.4474 10.4477 11.5519 10.4477 10.9996 11C10.4473 11.5523 10.4473 12.4477 10.9996 13Z" fill="#000000"/>
<path d="M10.5852 10.5858L10.1256 10.3888C10.1762 10.2708 10.2702 10.1768 10.3882 10.1262L10.5852 10.5858ZM15.5349 8.46449L15.338 8.00491C15.5259 7.92438 15.7439 7.96636 15.8885 8.11093C16.0331 8.2555 16.075 8.47352 15.9945 8.66145L15.5349 8.46449ZM8.46387 15.5356L8.66083 15.9951C8.47291 16.0757 8.25488 16.0337 8.11031 15.8891C7.96574 15.7445 7.92376 15.5265 8.00429 15.3386L8.46387 15.5356ZM13.4136 13.4142L13.8732 13.6112C13.8226 13.7292 13.7286 13.8232 13.6106 13.8738L13.4136 13.4142ZM12.9997 13L12.6461 12.6465L12.6461 12.6465L12.9997 13ZM12.9997 11L12.6461 11.3535L12.6461 11.3535L12.9997 11ZM10.9996 11L11.3532 11.3535L11.3532 11.3535L10.9996 11ZM10.3882 10.1262L15.338 8.00491L15.7319 8.92406L10.7821 11.0454L10.3882 10.1262ZM8.00429 15.3386L10.1256 10.3888L11.0448 10.7828L8.92344 15.7325L8.00429 15.3386ZM13.6106 13.8738L8.66083 15.9951L8.26691 15.076L13.2167 12.9547L13.6106 13.8738ZM15.9945 8.66145L13.8732 13.6112L12.954 13.2173L15.0754 8.26753L15.9945 8.66145ZM13.3532 13.3536C12.6056 14.1011 11.3936 14.1011 10.6461 13.3536L11.3532 12.6465C11.7102 13.0035 12.2891 13.0035 12.6461 12.6465L13.3532 13.3536ZM13.3532 10.6464C14.1008 11.394 14.1008 12.606 13.3532 13.3536L12.6461 12.6465C13.0031 12.2894 13.0031 11.7106 12.6461 11.3535L13.3532 10.6464ZM10.6461 10.6464C11.3936 9.89886 12.6056 9.89886 13.3532 10.6464L12.6461 11.3535C12.2891 10.9965 11.7102 10.9965 11.3532 11.3535L10.6461 10.6464ZM10.6461 13.3536C9.89849 12.606 9.89849 11.394 10.6461 10.6464L11.3532 11.3535C10.9961 11.7106 10.9961 12.2894 11.3532 12.6465L10.6461 13.3536Z" fill="#000000"/>
</svg>