<?xml version="1.0" encoding="iso-8859-1"?>
<!-- Uploaded to: SVG Repo, www.svgrepo.com, Generator: SVG Repo Mixer Tools -->
<svg height="800px" width="800px" version="1.1" id="Layer_1" xmlns="http://www.w3.org/2000/svg" xmlns:xlink="http://www.w3.org/1999/xlink" 
	 viewBox="0 0 512 512" xml:space="preserve">
<g transform="translate(1)">
	<path style="fill:#FFDD09;" d="M323.267,106.667c-2.56,0-4.267-0.853-5.973-2.56l-53.76-53.76l-53.76,53.76
		c-3.413,3.413-8.533,3.413-11.947,0s-3.413-8.533,0-11.947l59.733-59.733c3.413-3.413,8.533-3.413,11.947,0l0.853,0.853
		l58.88,58.88c3.413,3.413,3.413,8.533,0,11.947C327.533,105.813,325.827,106.667,323.267,106.667z"/>
	<polygon style="fill:#FCC309;" points="25.453,473.6 484.547,473.6 484.547,98.133 25.453,98.133 	"/>
	<polygon style="fill:#FFFFFF;" points="7.533,473.6 25.453,473.6 25.453,98.133 7.533,98.133 	"/>
	<polygon style="fill:#FD9808;" points="484.547,473.6 502.467,473.6 502.467,98.133 484.547,98.133 	"/>
	<polygon style="fill:#FFDD09;" points="41.667,439.467 468.333,439.467 468.333,132.267 41.667,132.267 	"/>
	<g>
		<path style="fill:#FCC309;" d="M314.733,226.133c0-33.28-26.453-59.733-59.733-59.733s-59.733,26.453-59.733,59.733
			S221.72,285.867,255,285.867S314.733,259.413,314.733,226.133"/>
		<path style="fill:#FCC309;" d="M410.307,192.853l2.56-0.853H303.64c6.827,9.387,11.093,21.333,11.093,34.133
			s-4.267,24.747-11.093,34.133h109.227l-2.56-0.853C380.44,247.467,380.44,204.8,410.307,192.853"/>
		<path style="fill:#FCC309;" d="M100.547,258.56l-3.413,1.707H206.36c-6.827-9.387-11.093-21.333-11.093-34.133
			s4.267-24.747,11.093-34.133H97.133l3.413,1.707C129.56,204.8,129.56,247.467,100.547,258.56"/>
	</g>
	<path d="M502.467,482.133H7.533C2.413,482.133-1,478.72-1,473.6V98.133c0-5.12,3.413-8.533,8.533-8.533h494.933
		c5.12,0,8.533,3.413,8.533,8.533V473.6C511,478.72,507.587,482.133,502.467,482.133z M16.067,465.067h477.867v-358.4H16.067
		V465.067z"/>
	<path d="M468.333,448H41.667c-5.12,0-8.533-3.413-8.533-8.533v-307.2c0-5.12,3.413-8.533,8.533-8.533h426.667
		c5.12,0,8.533,3.413,8.533,8.533v307.2C476.867,444.587,473.453,448,468.333,448z M50.2,430.933h409.6V140.8H50.2V430.933z"/>
	<path d="M41.667,140.8c-2.56,0-4.267-0.853-5.973-2.56L1.56,104.107c-3.413-3.413-3.413-8.533,0-11.947
		c3.413-3.413,8.533-3.413,11.947,0l34.133,34.133c3.413,3.413,3.413,8.533,0,11.947C45.933,139.947,44.227,140.8,41.667,140.8z"/>
	<path d="M7.533,482.133c-2.56,0-4.267-0.853-5.973-2.56c-3.413-3.413-3.413-8.533,0-11.947l34.133-34.133
		c3.413-3.413,8.533-3.413,11.947,0c3.413,3.413,3.413,8.533,0,11.947l-34.133,34.133C11.8,481.28,10.093,482.133,7.533,482.133z"/>
	<path d="M502.467,482.133c-2.56,0-4.267-0.853-5.973-2.56L462.36,445.44c-3.413-3.413-3.413-8.533,0-11.947
		c3.413-3.413,8.533-3.413,11.947,0l34.133,34.133c3.413,3.413,3.413,8.533,0,11.947
		C506.733,481.28,505.027,482.133,502.467,482.133z"/>
	<path d="M468.333,140.8c-2.56,0-4.267-0.853-5.973-2.56c-3.413-3.413-3.413-8.533,0-11.947l34.133-34.133
		c3.413-3.413,8.533-3.413,11.947,0c3.413,3.413,3.413,8.533,0,11.947l-34.133,34.133C472.6,139.947,470.893,140.8,468.333,140.8z"
		/>
	<path d="M255,294.4c-37.547,0-68.267-30.72-68.267-68.267s30.72-68.267,68.267-68.267s68.267,30.72,68.267,68.267
		S292.547,294.4,255,294.4z M255,174.933c-28.16,0-51.2,23.04-51.2,51.2s23.04,51.2,51.2,51.2s51.2-23.04,51.2-51.2
		S283.16,174.933,255,174.933z"/>
	<path d="M229.4,234.667c-5.12,0-8.533-3.413-8.533-8.533C220.867,207.36,236.227,192,255,192c5.12,0,8.533,3.413,8.533,8.533
		c0,5.12-3.413,8.533-8.533,8.533c-9.387,0-17.067,7.68-17.067,17.067C237.933,231.253,234.52,234.667,229.4,234.667z"/>
	<path d="M255,260.267c-5.12,0-8.533-3.413-8.533-8.533S249.88,243.2,255,243.2c9.387,0,17.067-7.68,17.067-17.067
		c0-5.12,3.413-8.533,8.533-8.533s8.533,3.413,8.533,8.533C289.133,244.907,273.773,260.267,255,260.267z"/>
	<path d="M263.533,354.133H178.2c-5.12,0-8.533-3.413-8.533-8.533c0-5.12,3.413-8.533,8.533-8.533h85.333
		c5.12,0,8.533,3.413,8.533,8.533C272.067,350.72,268.653,354.133,263.533,354.133z"/>
	<path d="M144.067,354.133H127c-5.12,0-8.533-3.413-8.533-8.533c0-5.12,3.413-8.533,8.533-8.533h17.067
		c5.12,0,8.533,3.413,8.533,8.533C152.6,350.72,149.187,354.133,144.067,354.133z"/>
	<path d="M400.067,388.267H306.2c-5.12,0-8.533-3.413-8.533-8.533c0-5.12,3.413-8.533,8.533-8.533h93.867
		c5.12,0,8.533,3.413,8.533,8.533C408.6,384.853,405.187,388.267,400.067,388.267z"/>
	<path d="M391.533,362.667c-2.56,0-4.267-0.853-5.973-2.56l-13.653-13.653c-8.533,1.707-21.333,1.707-32.427-7.68l-19.627,13.653
		c-4.267,2.56-9.387,1.707-11.947-2.56c-2.56-4.267-1.707-9.387,2.56-11.947l25.6-17.067c3.413-2.56,8.533-1.707,11.093,1.707
		c11.093,11.947,23.04,6.827,23.893,6.827c3.413-1.707,6.827-0.853,9.387,1.707l17.067,17.067c3.413,3.413,3.413,8.533,0,11.947
		C395.8,361.813,394.093,362.667,391.533,362.667z"/>
	<path d="M195.267,388.267H127c-5.12,0-8.533-3.413-8.533-8.533c0-5.12,3.413-8.533,8.533-8.533h68.267
		c5.12,0,8.533,3.413,8.533,8.533C203.8,384.853,200.387,388.267,195.267,388.267z"/>
	<path d="M263.533,388.267H229.4c-5.12,0-8.533-3.413-8.533-8.533c0-5.12,3.413-8.533,8.533-8.533h34.133
		c5.12,0,8.533,3.413,8.533,8.533C272.067,384.853,268.653,388.267,263.533,388.267z"/>
	<path d="M314.733,106.667c-2.56,0-4.267-0.853-5.973-2.56L255,50.347l-53.76,53.76c-3.413,3.413-8.533,3.413-11.947,0
		s-3.413-8.533,0-11.947l59.733-59.733c3.413-3.413,8.533-3.413,11.947,0l0.853,0.853l58.88,58.88c3.413,3.413,3.413,8.533,0,11.947
		C319,105.813,317.293,106.667,314.733,106.667z"/>
	<path d="M412.867,268.8H303.64c-3.413,0-5.973-1.707-7.68-4.267c-1.707-2.56-0.853-5.973,0.853-8.533
		c5.973-8.533,9.387-18.773,9.387-29.013c0-10.24-3.413-20.48-9.387-29.013c-1.707-2.56-1.707-5.973-0.853-8.533
		c0.853-2.56,4.267-4.267,7.68-4.267h109.227c4.267,0,7.68,2.56,8.533,6.827s-1.707,7.68-5.12,9.387l-2.56,0.853
		c-12.8,5.12-17.067,16.213-17.067,24.747c0,8.533,4.267,19.627,17.067,24.747l2.56,0.853c3.413,1.707,5.973,5.12,5.12,9.387
		C420.547,266.24,417.133,268.8,412.867,268.8z M318.147,251.733h69.12c-5.12-6.827-7.68-16.213-7.68-25.6s2.56-18.773,7.68-25.6
		h-69.12c3.413,7.68,5.12,17.067,5.12,25.6C323.267,234.667,321.56,244.053,318.147,251.733z"/>
	<path d="M206.36,268.8H97.133c-4.267,0-7.68-2.56-8.533-6.827c-0.853-4.267,1.707-7.68,5.12-9.387l3.413-1.707
		c12.8-5.12,17.067-16.213,17.067-24.747c0-8.533-4.267-19.627-17.067-24.747l-3.413-1.707c-3.413-1.707-5.973-5.12-5.12-9.387
		c0.853-4.267,4.267-6.827,8.533-6.827H206.36c3.413,0,5.973,1.707,7.68,4.267c1.707,2.56,0.853,5.973-0.853,8.533
		c-5.973,8.533-9.387,18.773-9.387,29.013c0,10.24,3.413,20.48,9.387,29.013c1.707,2.56,1.707,5.973,0.853,8.533
		C212.333,267.093,208.92,268.8,206.36,268.8z M122.733,251.733h69.12c-3.413-7.68-5.12-17.067-5.12-25.6
		c0-8.533,1.707-17.92,5.12-25.6h-69.12c5.12,6.827,7.68,16.213,7.68,25.6C131.267,235.52,127.853,244.907,122.733,251.733z"/>
</g>
</svg>