<?xml version="1.0" ?>
<!-- Uploaded to: SVG Repo, www.svgrepo.com, Generator: SVG Repo Mixer Tools -->
<svg width="800px" height="800px" viewBox="0 0 64 64" id="svg5" version="1.1" xml:space="preserve" xmlns="http://www.w3.org/2000/svg" xmlns:svg="http://www.w3.org/2000/svg">
<defs id="defs2"/>
<g id="layer1" transform="translate(-192,-192)">
<path d="m 201.99999,201 h 49 v 6 h -49 z" id="path10285" style="fill:#3e4f59;fill-opacity:1;fill-rule:evenodd;stroke-width:2;stroke-linecap:round;stroke-linejoin:round;stroke-miterlimit:4.1"/>
<path d="m 201.99999,207 h 49 v 40 h -49 z" id="path10287" style="fill:#acbec2;fill-opacity:1;fill-rule:evenodd;stroke-width:2.00001;stroke-linecap:round;stroke-linejoin:round;stroke-miterlimit:4.1"/>
<path d="m 201.99999,207 v 40 h 29.76953 a 28.484051,41.392605 35.599482 0 0 18.625,-40 z" id="path10289" style="fill:#e8edee;fill-opacity:1;fill-rule:evenodd;stroke:none;stroke-width:2.00002;stroke-linecap:round;stroke-linejoin:round;stroke-miterlimit:4.1"/>
<path d="m 203.99999,200 c -1.64501,0 -3,1.355 -3,3 v 40 c 0,0.55229 0.44772,1 1,1 0.55228,0 1,-0.44771 1,-1 v -40 c 0,-0.56413 0.43587,-1 1,-1 h 45 c 0.56413,0 1,0.43587 1,1 v 3 h -42 c -0.55228,0 -1,0.44772 -1,1 0,0.55229 0.44772,1 1,1 h 42 v 37 c 0,0.56413 -0.43587,1 -1,1 h -49 c -0.55228,0 -1,0.44772 -1,1 0,0.55229 0.44772,1 1,1 h 49 c 1.64501,0 3,-1.35499 3,-3 0,-14 0,-28 0,-42 0,-1.645 -1.35499,-3 -3,-3 z" id="path10291" style="color:#000000;fill:#000000;fill-rule:evenodd;stroke-linecap:round;stroke-linejoin:round;stroke-miterlimit:4.1"/>
<path d="m 246.99999,203 c -0.55228,0 -1,0.44772 -1,1 0,0.55229 0.44772,1 1,1 0.55228,0 1,-0.44771 1,-1 0,-0.55228 -0.44772,-1 -1,-1 z" id="path10293" style="color:#000000;fill:#ed7161;fill-opacity:1;fill-rule:evenodd;stroke-linecap:round;stroke-linejoin:round;stroke-miterlimit:4.1;-inkscape-stroke:none"/>
<path d="m 242.99999,203 c -0.55228,0 -1,0.44772 -1,1 0,0.55229 0.44772,1 1,1 0.55228,0 1,-0.44771 1,-1 0,-0.55228 -0.44772,-1 -1,-1 z" id="path10295" style="color:#000000;fill:#ecba16;fill-opacity:1;fill-rule:evenodd;stroke-linecap:round;stroke-linejoin:round;stroke-miterlimit:4.1;-inkscape-stroke:none"/>
<path d="m 238.99999,203 c -0.55228,0 -1,0.44772 -1,1 0,0.55229 0.44772,1 1,1 0.55228,0 1,-0.44771 1,-1 0,-0.55228 -0.44772,-1 -1,-1 z" id="path10297" style="color:#000000;fill:#42b05c;fill-opacity:1;fill-rule:evenodd;stroke-linecap:round;stroke-linejoin:round;stroke-miterlimit:4.1;-inkscape-stroke:none"/>
<path d="m 196.99999,246 a 1,1 0 0 0 -1,1 1,1 0 0 0 1,1 1,1 0 0 0 1,-1 1,1 0 0 0 -1,-1 z" id="path10299" style="color:#000000;fill:#000000;fill-rule:evenodd;stroke-linecap:round;stroke-linejoin:round;stroke-miterlimit:4.1;-inkscape-stroke:none"/>
<path d="m 204.99999,206 c -0.55228,0 -1,0.44772 -1,1 0,0.55229 0.44772,1 1,1 0.55228,0 1,-0.44771 1,-1 0,-0.55228 -0.44772,-1 -1,-1 z" id="path10301" style="color:#000000;fill:#000000;fill-rule:evenodd;stroke-linecap:round;stroke-linejoin:round;stroke-miterlimit:4.1;-inkscape-stroke:none"/>
<path d="m 235.18423,234.25002 c 3.48811,0 6.31579,-3.58172 6.31579,-8 0,-4.41828 -2.82768,-8 -6.31579,-8 -1.17402,0.003 -2.32417,0.42018 -3.32134,1.20508 -0.65992,-3.63063 -3.21106,-6.20365 -6.15234,-6.20508 -2.68805,0.008 -5.07756,2.17029 -5.95498,5.38867 -0.62663,-0.25688 -1.28113,-0.38802 -1.93976,-0.38867 -3.48811,0 -6.31579,3.58172 -6.31579,8 0,4.41828 2.82768,8 6.31579,8 z" id="path14723" style="fill:#fe73c5;fill-opacity:1;fill-rule:evenodd;stroke:none;stroke-width:2;stroke-linecap:round;stroke-linejoin:round;stroke-miterlimit:4.1"/>
<path d="m 221.32227,215.51562 c -0.69283,0.85307 -1.23654,1.9131 -1.56641,3.12305 -0.62663,-0.25688 -1.28082,-0.38802 -1.93945,-0.38867 -3.48811,0 -6.31641,3.58172 -6.31641,8 0,4.41828 2.8283,8 6.31641,8 h 17.36718 c 3.43296,0 6.22114,-3.47125 6.3086,-7.79297 -1.7725,-2.5735 -4.51082,-4.22851 -7.58985,-4.22851 -1.79897,0.005 -3.56185,0.5834 -5.08984,1.67382 -0.86275,-4.30337 -3.837,-7.52869 -7.49023,-8.38672 z" id="path6632" style="fill:#fe93d3;fill-opacity:1;fill-rule:evenodd;stroke:none;stroke-width:2;stroke-linecap:round;stroke-linejoin:round;stroke-miterlimit:4.1"/>
<g id="path14868" transform="translate(0,-3.2499793)">
<path d="m 223,229.49998 a 1.0001,1.0001 0 0 0 -0.70703,0.29297 l -3,3 a 1,1 0 0 0 0,1.41406 1,1 0 0 0 1.41406,0 L 222,232.91404 v 8.08594 a 1,1 0 0 0 1,1 1,1 0 0 0 1,-1 v -8.08594 l 1.29297,1.29297 a 1,1 0 0 0 1.41406,0 1,1 0 0 0 0,-1.41406 l -3,-3 A 1.0001,1.0001 0 0 0 223,229.49998 Z" id="path14083" style="color:#000000;fill:#000000;fill-rule:evenodd;stroke-linecap:round;stroke-linejoin:round;stroke-miterlimit:4.1"/>
</g>
<g id="path14876" transform="translate(0,-3.2499793)">
<path d="m 230,232.99998 a 1,1 0 0 0 -1,1 v 7.58594 l -1.29297,-1.29297 A 1,1 0 0 0 227,239.99998 a 1,1 0 0 0 -0.70703,0.29297 1,1 0 0 0 0,1.41406 l 3,3 a 1.0001,1.0001 0 0 0 1.41406,0 l 3,-3 a 1,1 0 0 0 0,-1.41406 1,1 0 0 0 -1.41406,0 L 231,241.58592 v -7.58594 a 1,1 0 0 0 -1,-1 z" id="path14073" style="color:#000000;fill:#000000;fill-rule:evenodd;stroke-linecap:round;stroke-linejoin:round;stroke-miterlimit:4.1"/>
</g>
<path d="m 225.71094,212.25002 a 1,1 0 0 0 -1,1 1,1 0 0 0 1,1 c 2.35836,0.001 4.57428,2.1185 5.16797,5.38477 a 1.0001,1.0001 0 0 0 1.60156,0.60546 c 0.8383,-0.65984 1.76689,-0.98742 2.70508,-0.99023 1.7842,8.2e-4 3.4151,1.16745 4.4082,3.10352 a 1,1 0 0 0 1.34766,0.43359 1,1 0 0 0 0.43164,-1.3457 c -1.25865,-2.45374 -3.53284,-4.19141 -6.18946,-4.19141 a 1.0001,1.0001 0 0 0 -0.002,0 c -0.96485,0.002 -1.88329,0.31602 -2.75586,0.75781 -1.0619,-3.32115 -3.59219,-5.75629 -6.71484,-5.75781 z m -3.875,1.70117 a 1,1 0 0 0 -0.70899,0.28906 c -0.87215,0.86482 -1.51131,2.01013 -1.98437,3.27539 -0.44173,-0.1014 -0.87381,-0.26517 -1.32617,-0.26562 -4.17267,0 -7.31641,4.15506 -7.31641,9 0,4.84494 3.14374,9 7.31641,9 a 1,1 0 0 0 1,-1 1,1 0 0 0 -1,-1 c -2.80355,0 -5.31641,-3.00839 -5.31641,-7 0,-3.99071 2.51167,-6.99864 5.31445,-7 0.52655,5.2e-4 1.05147,0.10496 1.5625,0.31445 a 1.0001,1.0001 0 0 0 1.34375,-0.66211 c 0.36469,-1.33769 1.01521,-2.44771 1.81446,-3.24023 a 1,1 0 0 0 0.006,-1.41602 1,1 0 0 0 -0.70508,-0.29492 z M 241.5,225.25002 a 1,1 0 0 0 -1,1 c 0,3.99161 -2.51286,7 -5.31641,7 a 1,1 0 0 0 -1,1 1,1 0 0 0 1,1 c 4.17267,0 7.31641,-4.15506 7.31641,-9 a 1,1 0 0 0 -1,-1 z" id="path14063" style="color:#000000;fill:#000000;fill-rule:evenodd;stroke-linecap:round;stroke-linejoin:round;stroke-miterlimit:4.1;-inkscape-stroke:none"/>
</g>
</svg>