<?xml version="1.0" encoding="UTF-8"?>
<!--Generator: Apple Native CoreSVG 175.5-->
<!DOCTYPE svg
PUBLIC "-//W3C//DTD SVG 1.1//EN"
       "http://www.w3.org/Graphics/SVG/1.1/DTD/svg11.dtd">
<svg version="1.1" xmlns="http://www.w3.org/2000/svg" xmlns:xlink="http://www.w3.org/1999/xlink" width="21.0547" height="17.9199">
 <g>
  <rect height="17.9199" opacity="0" width="21.0547" x="0" y="0"/>
  <path d="M0 8.95508C0 9.27734 0.126953 9.64844 0.498047 10L8.20312 17.2754C8.67188 17.7148 9.0625 17.9102 9.54102 17.9102C10.2051 17.9102 10.6836 17.4219 10.6836 16.7676L10.6836 12.8125L18.8086 12.8125C20.2246 12.8125 21.0547 12.0117 21.0547 10.6152L21.0547 7.30469C21.0547 5.9082 20.2246 5.10742 18.8086 5.10742L10.6836 5.10742L10.6836 1.19141C10.6836 0.537109 10.2051 0 9.52148 0C9.04297 0 8.7207 0.205078 8.20312 0.693359L0.498047 7.90039C0.117188 8.26172 0 8.62305 0 8.95508Z" fill="#ffffff" fill-opacity="0.85"/>
 </g>
</svg>
