<!DOCTYPE svg PUBLIC "-//W3C//DTD SVG 1.1//EN" "http://www.w3.org/Graphics/SVG/1.1/DTD/svg11.dtd">
<!-- Uploaded to: SVG Repo, www.svgrepo.com, Transformed by: SVG Repo Mixer Tools -->
<svg height="800px" width="800px" version="1.1" id="Layer_1" xmlns="http://www.w3.org/2000/svg" xmlns:xlink="http://www.w3.org/1999/xlink" viewBox="0 0 495.2 495.2" xml:space="preserve" fill="#000000">
<g id="SVGRepo_bgCarrier" stroke-width="0"/>
<g id="SVGRepo_tracerCarrier" stroke-linecap="round" stroke-linejoin="round"/>
<g id="SVGRepo_iconCarrier"> <polygon style="fill:#D38C0D;" points="325.6,224.4 495.2,126 325.6,28.4 156.8,127.6 "/> <g> <polygon style="fill:#EFBB67;" points="170.4,224.4 338.4,126.8 170.4,28.4 0,126.8 "/> <polygon style="fill:#EFBB67;" points="416,368.4 248,466.8 80,368.4 80,172.4 248,74 416,172.4 "/> </g> <polyline style="fill:#D38C0D;" points="248,74 416,172.4 416,368.4 248,466.8 "/> <polygon style="fill:#EFBB67;" points="326.4,314.8 495.2,218 325.6,119.6 156,218 "/> <polygon style="fill:#D38C0D;" points="170.4,316.4 339.2,217.2 170.4,119.6 0,218 "/> <polygon style="fill:#704A0E;" points="248.8,270.8 416,172.4 248.8,74 78.4,172.4 "/> <polyline style="fill:#513307;" points="248.8,270.8 416,172.4 248.8,74 "/> <polygon style="fill:#2D1C05;" points="248.8,270.8 284.8,249.2 248.8,228.4 212.8,249.2 "/> <g> <polygon style="fill:#000000;" points="368,379.6 408,356.4 408,343.6 368,366.8 "/> <polygon style="fill:#000000;" points="368,356.4 408,333.2 408,320.4 368,343.6 "/> <polygon style="fill:#000000;" points="368,333.2 408,310 408,296.4 368,320.4 "/> </g> </g>
</svg>