<?xml version="1.0" encoding="utf-8"?>
<!-- Uploaded to: SVG Repo, www.svgrepo.com, Generator: SVG Repo Mixer Tools -->
<svg width="800px" height="800px" viewBox="0 -30.06 438.952 438.952" xmlns="http://www.w3.org/2000/svg"><defs><style>.a{fill:#ffffff;}.b{fill:#211715;}.c{fill:#d9d9d9;}.d{fill:#7a7473;}</style></defs><path class="a" d="M191.072,185.11c1.482-.653,3.163-1.4,5.5-2.434a5.818,5.818,0,0,0,.717-.378,42.186,42.186,0,0,0,22.861-1.259,45.708,45.708,0,0,0,17.362-11.185,55.685,55.685,0,0,0,4.292-4.606,59.438,59.438,0,0,0,4.481,11.9c.92,1.86,5.04,5.393,8.275,7.8-.64.351-1.314.723-1.386.759-9.377,5.35-18.148,7.605-28.781,10.095a58.338,58.338,0,0,1-21.648.852c-6.494-1.02-12.854-3.937-17.138-8.872-.062-.068-.123-.138-.184-.208C187.622,186.624,189.186,185.941,191.072,185.11Z"/><path class="b" d="M186.586,189.662q3.732-1.608,7.45-3.253a29.854,29.854,0,0,0,4.679-2.176,15.242,15.242,0,0,0,3.98-4.386,2.416,2.416,0,0,0-.861-3.283,2.457,2.457,0,0,0-3.284.861,13.173,13.173,0,0,1-1.252,1.7,10.9,10.9,0,0,1-.841.838c-.3.27.033,0-.165.124-.165.106-.328.213-.5.306-1.455.789-3.056,1.375-4.571,2.044q-3.522,1.555-7.057,3.079a2.407,2.407,0,0,0-.861,3.284,2.475,2.475,0,0,0,3.284.861Z"/><path class="b" d="M239.345,165.193a42.218,42.218,0,0,0,1.993,6.557,50.625,50.625,0,0,0,2.952,6.747,17.629,17.629,0,0,0,3.622,4.087c1.762,1.606,3.635,3.09,5.546,4.514a2.415,2.415,0,0,0,3.283-.861,2.457,2.457,0,0,0-.861-3.284c-1.583-1.179-3.115-2.433-4.573-3.763-.673-.614-1.332-1.244-1.948-1.915-.139-.152-.274-.307-.409-.462-.112-.128-.32-.409-.11-.12a6.5,6.5,0,0,1-.479-.759,45.67,45.67,0,0,1-4.388-12.017,2.4,2.4,0,0,0-4.628,1.276Z"/><path class="a" d="M248.406,125.069c2.818-2.058,7.522-2.828,10.825-.622a12.23,12.23,0,0,1,4.994,10.281,20.2,20.2,0,0,1-3.923,11.063,29.138,29.138,0,0,1-11.961,9.705,56.573,56.573,0,0,1-10.825,14.358,45.708,45.708,0,0,1-17.362,11.185,42.194,42.194,0,0,1-23.444,1.125,41.689,41.689,0,0,1-11.877-4.763,40.271,40.271,0,0,1-10.953-10.159,54.648,54.648,0,0,1-8.608-15.939,75.609,75.609,0,0,1-3.821-16.1c-.435-3.019-.654-5.587-.773-7.483,0,0-8.17-36.618,43.682-36.618C246.138,91.1,248.406,125.069,248.406,125.069Z"/><path class="a" d="M255.691,184.313h0C255.736,184.29,255.74,184.286,255.691,184.313Z"/><path class="a" d="M319.31,302.179c-4.222-28.222-7.111-45.778-14.222-71.556-.391-1.416-.879-2.919-1.447-4.467a77.28,77.28,0,0,0-10.331-19.311,47.254,47.254,0,0,0-9.029-8.816c-8.15-6.367-19.242-10.28-28.588-13.715-.29.164-2.385,1.328-2.515,1.392-9.377,5.35-18.148,7.605-28.781,10.095a58.338,58.338,0,0,1-21.648.852c-6.494-1.02-12.854-3.937-17.138-8.872-.21-.232-.409-.475-.608-.729l-17.512,6.58a32.59,32.59,0,0,0-8.71,5.54,27.874,27.874,0,0,0-8.34,12.58c-2.96,8.34-4.53,17.85-6.12,26.56-2.063,11.319-3.875,21.142-6.732,32.4,6.247.2,11.434.359,15.014.467a5.992,5.992,0,0,1,5.725,4.986c1.627,9.529,3.286,19.2,5.011,29.211a216.308,216.308,0,0,0,15.342-31.809l.371-.788c1.917,11.043,3.58,20.5,4.029,23.606.65,4.429,1.809,11.338,2.549,16.017a105.725,105.725,0,0,1,12.771-7.677c4.07-2.07,8.63-3.91,13.08-2.95,5.68,1.23,8.433,3.739,14.073,5.119,3.972.978,6.195.076,9.54-.016,4.994,9.625,7.156,25.615,7.253,28.339,5.038-.074,38.223-.444,45.817-1.217,5.991-.61,12.136-.745,17.751-2.921s10.741-6.477,12.354-12.28A52.822,52.822,0,0,0,319.31,302.179Z"/><path class="c" d="M64.71,34.688Q59.126,29.27,53.6,23.789a2.4,2.4,0,1,0-3.394,3.394q5.51,5.495,11.109,10.9a2.4,2.4,0,1,0,3.394-3.394Z"/><path class="c" d="M79.315,19.915q-7.507,6.3-14.983,12.642-1.281,1.08-2.563,2.16a2.419,2.419,0,0,0,0,3.394,2.451,2.451,0,0,0,3.394,0Q72.336,32.09,79.479,26.03q1.614-1.362,3.23-2.721a2.418,2.418,0,0,0,0-3.394,2.452,2.452,0,0,0-3.394,0Z"/><path class="c" d="M63.408,0A36.775,36.775,0,0,0,41.385,7.114,35.929,35.929,0,0,0,28.76,25.023C24.333,39.1,28.552,56.077,40.365,65.289,52.107,74.446,69.884,75.424,82.757,68c13.11-7.557,18.695-23.283,16.5-37.818A35.655,35.655,0,0,0,69.751.519,42.785,42.785,0,0,0,63.408,0c-3.089-.015-3.093,4.785,0,4.8a32.322,32.322,0,0,1,19.317,6.232A30.611,30.611,0,0,1,93.472,26.405c3.785,12.221.429,26.877-9.592,35.053-9.808,8-25.555,8.766-36.574,2.7-11.5-6.328-17.067-20-15.092-32.83a31.554,31.554,0,0,1,8.405-17.191,31.171,31.171,0,0,1,17.534-8.96A34.093,34.093,0,0,1,63.408,4.8C66.5,4.785,66.5-.015,63.408,0Z"/><path class="c" d="M362.215,27.4c0,7.443.277,14.883.283,22.326,0,3.6-.068,7.2-.266,10.793q-.15,2.738-.4,5.467c-.086.946-.235,1.9-.284,2.848-.01.186-.113.586.031-.213-.029.165-.05.332-.077.5-.581,3.548-1.492,7.055-2.317,10.552-1.134,4.81-2.289,9.617-3.337,14.447-.873,4.024-1.993,8.278-2.02,12.421-.021,3.089,4.779,3.093,4.8,0a17.345,17.345,0,0,1,.112-1.75c.018-.176.04-.351.061-.527.073-.628-.08.539.014-.113q.1-.723.223-1.443c.343-2.079.763-4.145,1.2-6.206,1.027-4.831,2.177-9.636,3.313-14.442.87-3.684,1.806-7.37,2.48-11.1a111.794,111.794,0,0,0,1.252-18.683c.079-8.293-.27-16.584-.273-24.877,0-3.088-4.8-3.094-4.8,0Z"/><path class="c" d="M334.315,118.947c-.942-.611-.754-2.573-.747-3.685a22.1,22.1,0,0,1,.33-5.208,6.091,6.091,0,0,1,.3-.949c-.164.371.136-.184.194-.287.177-.313-.233.3-.031.02.055-.075.133-.13.188-.2.222-.3.028-.053-.079.027.117-.087.252-.152.37-.237.439-.317-.209.027.158-.077.24-.068.478-.126.721-.181.4-.09-.32,0,.249-.024.321-.01.64-.032.962-.033,3.411-.013,6.822.256,10.239.239,2.258-.011,4.517-.048,6.775-.075a5.958,5.958,0,0,1,1.374,0c-.017,0-.336-.108-.294-.157a5.814,5.814,0,0,0-.041,1.793c.057,3.631.1,7.263.106,10.895l2.4-2.4c-3.732.019-7.477.394-11.2.587-2.064.107-4.129.212-6.195.239-.993.012-1.987.036-2.979.025a9.681,9.681,0,0,1-2.8-.3,2.468,2.468,0,0,0-3.284.861,2.421,2.421,0,0,0,.861,3.284c2.316,1.1,4.906.962,7.408.94,2.113-.018,4.222-.1,6.333-.21,3.944-.2,7.908-.6,11.859-.621a2.435,2.435,0,0,0,2.4-2.4c0-3.9-.052-7.8-.119-11.7-.041-2.38-.623-4.725-3.22-5.448a13.184,13.184,0,0,0-3.67-.168c-1.39.018-2.78.038-4.17.051-2.571.023-5.145.037-7.715-.06-1.568-.059-3.145-.228-4.715-.153-3.394.161-5.977,1.833-6.945,5.2a26.3,26.3,0,0,0-.568,7.679c.054,2.743.7,5.314,3.122,6.889C334.491,124.779,336.9,120.625,334.315,118.947Z"/><path class="c" d="M354.261,121.216a108.606,108.606,0,0,0,1.249,13.357q.929,7.209,2.069,14.39c1.043,6.512,2.551,12.96,3.286,19.519a153.98,153.98,0,0,1,.553,23.121,18.477,18.477,0,0,1-.4,3.633q-.095.393-.22.777c-.238.721.195-.3-.133.333a3.9,3.9,0,0,1-.349.579c.4-.526-.531.515-.033.027-.06.059-.654.328-.185.142a3.985,3.985,0,0,1-.662.175c.487-.1-.287.033-.317.036-.254.029-.507.057-.761.084-1.246.133-2.494.242-3.743.339-5.656.437-11.341.654-17.013.586-2.411-.029-4.829-.1-7.228-.351-.247-.026-.493-.053-.739-.083-.758-.095.434.113-.274-.041a1.7,1.7,0,0,1-1.207-.644,2.026,2.026,0,0,1-.2-1.228c.025-1.126,0-2.255.017-3.382.086-7.173.534-14.333,1.115-21.482.309-3.813.649-7.623.953-11.437a106.3,106.3,0,0,1,1.266-11.607c1.648-8.63,4.648-16.928,6.488-25.512.646-3.013-3.98-4.3-4.628-1.276-1.71,7.976-4.414,15.7-6.117,23.678-1.56,7.309-1.81,14.825-2.438,22.256s-1.2,14.87-1.383,22.329q-.077,3.093-.073,6.188a6.815,6.815,0,0,0,1.721,4.985c1.973,2.056,5.018,2.065,7.678,2.233a151.242,151.242,0,0,0,17.775-.131c2.682-.147,5.363-.335,8.034-.62,2.61-.277,4.929-.762,6.342-3.218,1.446-2.513,1.5-5.731,1.554-8.548.082-4.035.075-8.083,0-12.118-.166-8.464-1.528-16.663-3.058-24.967a259.391,259.391,0,0,1-4.022-29.5c-.058-.872-.1-1.744-.106-2.618-.012-3.088-4.812-3.094-4.8,0Z"/><path class="c" d="M343.459,122.324v18.394c0,3.088,4.8,3.094,4.8,0V122.324c0-3.089-4.8-3.094-4.8,0Z"/><path class="c" d="M335.889,56.691c.573,9.608,1.66,19.209,2.625,28.783.182,1.806.356,3.613.574,5.414a2.475,2.475,0,0,0,2.4,2.4,2.413,2.413,0,0,0,2.4-2.4c-1.139-9.425-1.917-18.911-2.738-28.368-.168-1.941-.345-3.884-.461-5.829-.183-3.07-4.985-3.091-4.8,0Z"/><path class="c" d="M350.016,74.3c-1.138,5.718-1.234,11.592-1.946,17.367a2.413,2.413,0,0,0,2.4,2.4,2.46,2.46,0,0,0,2.4-2.4c.667-5.407.782-11.105,1.775-16.091a2.461,2.461,0,0,0-1.676-2.952,2.424,2.424,0,0,0-2.953,1.676Z"/><path class="c" d="M322.385,28.413a49.155,49.155,0,0,0,.345,6.663c.278,3.089.619,6.173.978,9.254.745,6.39,1.244,12.817,2.041,19.2,1.209,9.675,3.352,19.219,5.174,28.789a84.282,84.282,0,0,1,1.873,12.559c.115,3.079,4.915,3.094,4.8,0a81.243,81.243,0,0,0-1.611-11.515c-.774-4.226-1.641-8.433-2.469-12.649-.981-4.989-1.9-10.007-2.665-15.035-.95-6.269-1.314-12.642-2.06-18.941-.417-3.527-.827-7.054-1.162-10.59a55.1,55.1,0,0,1-.444-7.732c.147-3.088-4.654-3.08-4.8,0Z"/><path class="c" d="M324.785,30.813a70.483,70.483,0,0,0,11.528-1.046c1.689-.3,3.266-1.158,4.958-1.39,1.086-.149,2.263.714,3.615,1.119a18.8,18.8,0,0,0,4.991.439q2.541.054,5.085.066c3.217.015,6.441,0,9.653-.2,3.068-.191,3.09-4.993,0-4.8-3.144.2-6.3.215-9.447.2q-2.547-.009-5.1-.063a13.373,13.373,0,0,1-4.642-.528c-1.442-.55-2.657-1.182-4.25-1.032a31.913,31.913,0,0,0-5.095,1.327,37.818,37.818,0,0,1-5.713.737c-1.858.192-3.719.355-5.588.37-3.088.024-3.1,4.824,0,4.8Z"/><path class="c" d="M365.42,186.75q29.469-.055,58.94-.109,6.094-.007,12.19-.009c3.089,0,3.094-4.8,0-4.8q-26.861,0-53.72.084l-17.41.034c-3.089.006-3.094,4.806,0,4.8Z"/><path class="c" d="M418.5,99.693h-8.009a2.435,2.435,0,0,0-2.4,2.4c0,6.656.011,13.313-.009,19.969a2.435,2.435,0,0,0,2.4,2.4c2.726,0,5.452.077,8.178.08,3.088,0,3.093-4.8,0-4.8-2.726,0-5.452-.076-8.178-.08l2.4,2.4c.02-6.656.009-13.313.009-19.969l-2.4,2.4H418.5c3.088,0,3.094-4.8,0-4.8Z"/><path class="c" d="M436.55,37.441q-25.932,0-51.864-.062l-18.713-.024c-3.089,0-3.093,4.8,0,4.8q30.9.041,61.809.079,4.385.006,8.768.007c3.089,0,3.094-4.8,0-4.8Z"/><path class="c" d="M429.2,48.015q-27.664-.036-55.329-.1-4.226-.008-8.45-.011c-3.088,0-3.093,4.8,0,4.8,16.282,0,32.564.059,48.846.088l14.933.024c3.089,0,3.094-4.8,0-4.8Z"/><path class="c" d="M436.55,48.02q-3.682,0-7.365-.005a2.4,2.4,0,1,0,0,4.8q3.682,0,7.365.005a2.4,2.4,0,0,0,0-4.8Z"/><path class="c" d="M422.515,173.6c0-4.612-.023-9.224-.036-13.836q-.042-14.51-.085-29.019-.051-17.192-.1-34.381-.043-14.916-.083-29.83c-.014-5.235.061-10.479-.033-15.713,0-.156,0-.313,0-.469.018-3.09-4.782-3.093-4.8,0-.025,4.426.013,8.853.024,13.279q.038,14.367.08,28.733.048,17.182.1,34.365.045,15.041.088,30.083.024,8.118.044,16.236c0,.184,0,.368,0,.552,0,3.089,4.8,3.094,4.8,0Z"/><path class="c" d="M431.363,173.7c0-4.614-.023-9.227-.036-13.84q-.042-14.514-.085-29.027-.051-17.2-.1-34.391Q431.1,81.52,431.058,66.6c-.014-5.237.062-10.481-.033-15.717,0-.156,0-.313,0-.469.018-3.09-4.782-3.093-4.8,0-.025,4.427.013,8.855.024,13.283q.037,14.37.08,28.74.05,17.187.1,34.375.045,15.045.088,30.091.024,8.12.044,16.24c0,.184,0,.368,0,.553,0,3.088,4.8,3.093,4.8,0Z"/><path class="c" d="M429.35,175.98c2.4,0,4.8-.013,7.2-.013a2.4,2.4,0,0,0,0-4.8c-2.4,0-4.8.009-7.2.013a2.4,2.4,0,0,0,0,4.8Z"/><path class="c" d="M364.817,176.131q26.067-.06,52.133-.124,6.243-.015,12.486-.027c3.088-.006,3.094-4.806,0-4.8q-25.4.049-50.795.118-6.912.018-13.824.033c-3.088.007-3.094,4.807,0,4.8Z"/><path class="a" d="M26.172,272.068c4.819,28.211,9.9,57.618,16.392,94.853a4.138,4.138,0,0,0,3.7,3.417c22.38,1.992,98.063,5.27,124.379,6.12a4.128,4.128,0,0,0,4.195-4.842c-6.476-37.082-11.624-66.851-16.509-95.454a5.992,5.992,0,0,0-5.725-4.986c-21.583-.652-101.35-3.247-122.244-3.92A4.115,4.115,0,0,0,26.172,272.068Z"/><path class="d" d="M212.375,98.456c-7.286,3.279-16.551,10.094-19.684,11.422-1.807.765-.943-2.736-1.7-5.121-.372-1.178-1.393-1.632-2.151-1.215-6.467,3.553-15.5,12.328-20.587,18.1l-8.779,8.681c-6.38-23.361-1.529-42.1,8.339-50.811l-.346-7.157a55.94,55.94,0,0,1,10.187-9.146C191.8,53.289,205.7,52.9,215.1,53.319c11.63.519,22.667,7.111,28,12.889l5.889,5.333c11.074,8.63,15,23,15.427,35.257.159,4.544-.918,14.451-2.848,19.823a10.183,10.183,0,0,0-2.338-2.174c-3.319-2.216-8.054-1.428-10.861.658-.521.319-1.072.623-1.589.9a2.04,2.04,0,0,1-2.784-.889c-4.674-9.348-8.229-15.571-14.563-20.571a26.884,26.884,0,0,0-7.074-4.333Z"/><path class="a" d="M178.789,331.533c0-.117,0-.231,0-.343a4.833,4.833,0,0,1,1.228-3.1l.886-1.124-1.152.243a4.339,4.339,0,0,1-4.54-1.69c-.84-1.24-.31-3.33.06-4.08a11.906,11.906,0,0,1,2.23-2.72c1.01-1,5.39-4.35,6.53-5.18a105.827,105.827,0,0,1,14.37-8.82c4.07-2.07,8.63-3.91,13.08-2.95,5.68,1.23,8.433,3.739,14.073,5.119,3.972.978,6.2.076,9.54-.012,3.278,6.316,5.336,15.376,6.391,21.626l-.693.207c-1.427.6-5.035,2.836-9.188,4.558a15.177,15.177,0,0,1-11.676-.05,85.215,85.215,0,0,1-10.649,9.971c-.712.571-3.073,2.307-5,.674-1.265-1.073-.969-3.527-.345-4.483,3-4.607,4.282-8.023,7.606-12.269-5.511,3.424-10.812,7.432-16.3,10.909-1.785,1.13-3.273,2.112-5.355,1.747a3.827,3.827,0,0,1-3.219-3.986,5.943,5.943,0,0,1,1.067-2.8c-1.036.482-1.653.767-1.653.767a10.958,10.958,0,0,1-3.209,1.064,3.977,3.977,0,0,1-3.219-.949A3.9,3.9,0,0,1,178.789,331.533Z"/><path class="b" d="M254.51,182.225a93.665,93.665,0,0,1-10.081,5.141,101.171,101.171,0,0,1-14.037,4.512,83.561,83.561,0,0,1-15.4,2.892,46.892,46.892,0,0,1-15.352-1.24,24.742,24.742,0,0,1-12.949-8.186,2.414,2.414,0,0,0-3.394,0,2.458,2.458,0,0,0,0,3.394c6.769,8.507,18.122,11.044,28.481,10.948a75.225,75.225,0,0,0,17.162-2.5,120.954,120.954,0,0,0,15.032-4.5,96.908,96.908,0,0,0,12.96-6.318c2.685-1.527.269-5.676-2.422-4.145Z"/><path class="b" d="M169.5,227.882c.972,10.541,3.042,21.04,4.816,31.466,1.917,11.274,3.945,22.531,5.831,33.81,1.107,6.618,2.118,13.255,3.169,19.882a2.417,2.417,0,0,0,2.952,1.676,2.458,2.458,0,0,0,1.676-2.952c-1.7-10.753-3.427-21.5-5.292-32.225-2.163-12.441-4.353-24.879-6.339-37.351-.461-2.894-.91-5.792-1.322-8.694-.043-.3-.084-.593-.126-.889-.019-.143-.127-.93-.086-.623.04.289-.057-.437-.075-.576-.037-.28-.072-.56-.107-.841-.111-.893-.215-1.787-.3-2.683a2.465,2.465,0,0,0-2.4-2.4,2.417,2.417,0,0,0-2.4,2.4Z"/><path class="b" d="M140.295,269.82c3.327-13.442,5.5-27.1,8.151-40.676,1.243-6.359,2.534-13.034,5.187-18.982A28.263,28.263,0,0,1,165.6,197.2c3.355-1.959,7.295-3.046,10.921-4.409l11.651-4.378a2.466,2.466,0,0,0,1.676-2.952,2.419,2.419,0,0,0-2.952-1.676l-10.719,4.028c-3.561,1.338-7.213,2.545-10.7,4.07a37.024,37.024,0,0,0-8.391,5.589,26.634,26.634,0,0,0-6.029,7.209c-3.386,5.8-5,12.617-6.406,19.121-1.5,6.945-2.643,13.967-3.942,20.951-1.484,7.971-3.092,15.916-5.04,23.788-.743,3,3.885,4.278,4.628,1.276Z"/><path class="b" d="M168.093,301.759c5.306-8.6,9.354-18.118,12.9-27.557a2.42,2.42,0,0,0-1.676-2.952,2.451,2.451,0,0,0-2.952,1.676,152.134,152.134,0,0,1-12.418,26.41c-1.627,2.636,2.523,5.05,4.144,2.423Z"/><path class="b" d="M23.858,272.706q4.927,28.848,9.931,57.682,2.883,16.633,5.78,33.263c.459,2.634.577,5.5,2.7,7.412,1.505,1.356,3.3,1.619,5.228,1.781,2.22.187,4.442.35,6.665.5,13.5.939,27.029,1.619,40.55,2.287Q118.2,376.8,141.7,377.759q9.776.4,19.553.771,3.885.144,7.77.275a8.965,8.965,0,0,0,5-.811,6.606,6.606,0,0,0,3.273-5.711,27.341,27.341,0,0,0-.662-4.243l-.8-4.59q-.76-4.367-1.522-8.733-1.417-8.136-2.831-16.274-2.66-15.312-5.3-30.629-2.47-14.336-4.923-28.676c-.377-2.2-.53-4.56-1.771-6.487a8.368,8.368,0,0,0-5.573-3.73,50.756,50.756,0,0,0-6.656-.309q-18.636-.579-37.273-1.184-22.627-.728-45.255-1.46-16.675-.54-33.349-1.079a7.588,7.588,0,0,0-4.756,1.055,6.525,6.525,0,0,0-2.855,6.124,2.478,2.478,0,0,0,2.4,2.4,2.415,2.415,0,0,0,2.4-2.4c-.193-1.5.51-2.436,2.051-2.4.858.019,1.715.056,2.573.083l6.512.211,17.23.558Q78.42,271.21,99.9,271.9q19.938.642,39.876,1.275l7.207.226c1.909.059,3.891-.031,5.788.182a3.623,3.623,0,0,1,3.089,2.554,53.863,53.863,0,0,1,1.194,6.755q1.156,6.759,2.317,13.518,5.159,30.03,10.4,60.046.72,4.132,1.441,8.267.357,2.052.716,4.1c.2,1.138.766,2.63.566,3.78-.23,1.325-1.418,1.464-2.554,1.426q-1.673-.054-3.345-.113-8.631-.3-17.258-.652-22.254-.889-44.5-1.945c-14.172-.671-28.344-1.374-42.506-2.245-4.894-.3-9.788-.614-14.675-1.022-1-.084-2.086-.053-2.6-1.106a15.594,15.594,0,0,1-.728-3.848l-.756-4.341q-1.433-8.233-2.864-16.467-5.026-28.944-10-57.9-1.113-6.484-2.22-12.969a2.42,2.42,0,0,0-2.952-1.677A2.455,2.455,0,0,0,23.858,272.706Z"/><path class="b" d="M234.44,337.405c-17.446,10.7-35.155,21.006-52.928,31.156-2.863,1.635-5.722,3.283-8.627,4.844-2.722,1.462-.3,5.608,2.422,4.144,6.455-3.467,12.772-7.206,19.111-10.878q14.247-8.251,28.4-16.661,7.044-4.191,14.042-8.461c2.629-1.612.22-5.766-2.423-4.144Z"/><path class="b" d="M262.259,247.392q6.427,24.255,11.7,48.8c.648,3.019,5.277,1.741,4.629-1.276q-5.268-24.534-11.7-48.8c-.791-2.983-5.422-1.718-4.629,1.276Z"/><path class="b" d="M242.125,298.948c12.944,1.158,26.105-.249,39.037-.963,3.072-.17,3.092-4.971,0-4.8-12.932.714-26.093,2.121-39.037.963a2.418,2.418,0,0,0-2.4,2.4,2.451,2.451,0,0,0,2.4,2.4Z"/><path class="b" d="M179.113,324.9a2.385,2.385,0,0,1-1.493-.274c-.666-.455-.483-1.209-.28-1.9.147-.5.059-.19,0-.072a4.241,4.241,0,0,1,.366-.62,9.849,9.849,0,0,1,1.024-1.148,19.517,19.517,0,0,1,1.555-1.419,103.241,103.241,0,0,1,9.461-6.964c4.53-2.958,9.449-6.078,14.624-7.759a13.124,13.124,0,0,1,7.763-.343,45.345,45.345,0,0,1,6.52,2.55,30.5,30.5,0,0,0,8.35,2.632c2.706.355,5.31-.194,8.008-.3,3.079-.123,3.094-4.923,0-4.8-2.557.1-5.132.736-7.69.332a31.585,31.585,0,0,1-7.912-2.76,31.667,31.667,0,0,0-8.156-2.747,18.652,18.652,0,0,0-9.422,1.257,81.525,81.525,0,0,0-17.156,9.581,63.7,63.7,0,0,0-9.339,7.347c-2.077,2.135-3.689,5.016-2.723,8.092,1.034,3.292,4.665,4.5,7.773,3.943a2.421,2.421,0,0,0,1.676-2.952,2.453,2.453,0,0,0-2.952-1.676Z"/><path class="b" d="M196.182,312.613a120.958,120.958,0,0,0-12.731,9.011c-3.5,2.778-8.323,6.483-6.787,11.627a5.391,5.391,0,0,0,4.239,3.839c2.282.427,4.338-.33,6.388-1.269a2.42,2.42,0,0,0,.861-3.284,2.457,2.457,0,0,0-3.284-.861,10.343,10.343,0,0,1-1.8.659,2.338,2.338,0,0,1-1.163.071c-.106-.024-.608-.228-.444-.145.135.068-.087-.1-.13-.183a2.02,2.02,0,0,1-.123-1.182c-.029.219.093-.338.121-.418-.057.161.213-.4.3-.527.134-.207.412-.806.653-.934-.143.076-.395.458-.1.146.1-.11.2-.225.3-.335.23-.244.471-.479.714-.709a81.536,81.536,0,0,1,9.721-7.6c1.859-1.307,3.742-2.586,5.69-3.757,2.645-1.589.235-5.741-2.423-4.145Z"/><path class="b" d="M204.029,317.574c-3.626,2.281-7.115,4.76-10.6,7.241-3.181,2.261-6.637,4.372-8.363,8.043-1.639,3.485-.4,7.639,3.4,9.006,4.079,1.468,7.85-1.628,11.032-3.756,4.172-2.791,8.238-5.737,12.474-8.431,2.6-1.652.195-5.808-2.422-4.144-3.98,2.53-7.81,5.283-11.718,7.921a37.617,37.617,0,0,1-5.858,3.7c-.916.391-2.258.447-2.733-.443-.535-1,.212-2.115.994-3.158a20.391,20.391,0,0,1,4.873-4.07c3.739-2.654,7.464-5.326,11.346-7.769,2.609-1.641.2-5.8-2.422-4.144Z"/><path class="b" d="M208.761,326.844a76.638,76.638,0,0,0-4.589,7.5c-1.366,2.407-3.384,4.692-3.15,7.631a5.24,5.24,0,0,0,2.264,4.125,5.4,5.4,0,0,0,4.689.529,10.52,10.52,0,0,0,3.245-1.942q1.862-1.5,3.658-3.08a81.64,81.64,0,0,0,7.2-7.2,2.457,2.457,0,0,0,0-3.394,2.421,2.421,0,0,0-3.394,0q-2.568,2.912-5.4,5.571-1.473,1.375-3.007,2.682-.741.631-1.492,1.25-.416.342-.834.68a2.428,2.428,0,0,1-.364.294c.152-.077.475-.338.129-.1A11.206,11.206,0,0,1,206.7,342c-.356.191.2-.006-.21.071-.142.026-.278.079-.422.1.336-.056.087.043-.019-.029.024.016.528.193-.032-.007-.013,0-.34-.149-.159-.054.274.144-.152-.28.115.146-.148-.236-.131-.452-.087-.116a2.325,2.325,0,0,1-.075-.284c-.037-.177-.034-.127.007.148l-.015-.2c0-.2,0-.4.008-.6.008-.453.013-.032-.01.062.022-.089.032-.182.06-.27s.054-.173.072-.257c.085-.4-.014.039-.065.122.162-.261.319-.525.485-.785.709-1.114,1.377-2.253,2.028-3.4a74.741,74.741,0,0,1,4.52-7.385,2.417,2.417,0,0,0-.861-3.284,2.454,2.454,0,0,0-3.283.861Z"/><path class="b" d="M220.707,336.057a18.264,18.264,0,0,0,12.61-.926c2.981-1.283,5.719-3.059,8.686-4.347a2.414,2.414,0,0,0,.861-3.283,2.46,2.46,0,0,0-3.283-.861c-2.636,1.143-5.08,2.72-7.7,3.91a13.764,13.764,0,0,1-9.9.878c-2.967-.883-4.234,3.748-1.276,4.629Z"/><path class="b" d="M230.72,304.426c3.829,4.962,5.565,11.423,6.984,17.437q1.015,4.311,1.7,8.694.137.874.257,1.75c-.085-.617.026.209.04.321.029.229.057.457.083.686.072.631.142,1.265.167,1.9a2.439,2.439,0,0,0,2.4,2.4c10.856-.158,21.712-.288,32.564-.6,5.106-.147,10.192-.356,15.28-.809,5.129-.457,10.391-.76,15.3-2.432a25.536,25.536,0,0,0,11.067-7.107A20.317,20.317,0,0,0,321.3,315.79a55.317,55.317,0,0,0,.562-12.269c-.408-4.939-1.421-9.889-2.183-14.785q-1.092-7.015-2.286-14.015c-1.512-8.766-3.23-17.5-5.247-26.16-2.128-9.142-4.154-18.512-7.84-27.172s-8.669-16.979-15.916-23.134c-7.431-6.312-16.212-10.3-25.257-13.729-2.133-.809-4.277-1.59-6.419-2.373a2.422,2.422,0,0,0-2.953,1.676,2.451,2.451,0,0,0,1.677,2.952c8.469,3.1,17.1,6.167,24.666,11.188a49.034,49.034,0,0,1,10.417,9.222,58.149,58.149,0,0,1,6.969,10.922c4.194,8.166,6.4,16.911,8.6,25.776q3.137,12.659,5.5,25.49c1.679,9.075,3.11,18.194,4.493,27.317.336,2.218.811,4.841.974,6.682a43.9,43.9,0,0,1,.083,5.5c-.132,3.494-.3,7.388-1.641,10.67-3.364,8.243-13.059,10.7-21.009,11.474-5.5.538-10.968.915-16.487,1.1-11.3.374-22.617.52-33.926.671l-1.722.023,2.4,2.4a69.328,69.328,0,0,0-1.5-10.351,81.988,81.988,0,0,0-4.352-15.38,31.771,31.771,0,0,0-4.036-7.48,2.48,2.48,0,0,0-3.283-.861,2.416,2.416,0,0,0-.861,3.284Z"/><path class="b" d="M2.318,327.2c7.62-.009,15.237-.327,22.857-.331,3.089,0,3.094-4.8,0-4.8-7.62,0-15.237.322-22.857.331-3.088,0-3.093,4.8,0,4.8Z"/><path class="b" d="M327.652,327.21c3.808,0,7.616-.022,11.424-.034l24.891-.082,30.131-.1q13.359-.045,26.719-.086,7.548-.024,15.1-.043h.637c3.089,0,3.094-4.8,0-4.8-4.347,0-8.694.021-13.041.034q-12.86.041-25.72.083l-30.18.1-25.987.086c-4.522.014-9.056-.065-13.577.042-.131,0-.262,0-.393,0-3.089,0-3.094,4.8,0,4.8Z"/><path class="b" d="M249.618,127.142c2.542-1.784,6.226-2.4,8.8-.33,2.75,2.206,3.728,6.015,3.315,9.4-.971,7.943-7.707,13.974-14.557,17.192a2.42,2.42,0,0,0-.861,3.283,2.454,2.454,0,0,0,3.284.861c7.032-3.3,12.913-8.852,15.731-16.185,2.66-6.922,1.086-16.642-6.475-19.8A12.523,12.523,0,0,0,247.2,123a2.465,2.465,0,0,0-.861,3.284,2.421,2.421,0,0,0,3.284.861Z"/><path class="b" d="M158.278,127.715c1.182,18.418,7.14,38.316,22.533,49.851,14.534,10.891,35.918,10.618,50.684.422a61.162,61.162,0,0,0,18.939-21.318c1.458-2.723-2.684-5.15-4.144-2.423a58.558,58.558,0,0,1-15.032,17.978,39.891,39.891,0,0,1-45.145,3.146c-7.491-4.55-13.129-12.227-16.694-20.115-3.9-8.633-5.737-18.126-6.341-27.541a2.455,2.455,0,0,0-2.4-2.4,2.421,2.421,0,0,0-2.4,2.4Z"/><path class="b" d="M264.235,126.194a65.43,65.43,0,0,0,2.223-12.18,57.436,57.436,0,0,0-6.631-33.538,37.719,37.719,0,0,0-9.14-10.632,2.477,2.477,0,0,0-3.394,0,2.416,2.416,0,0,0,0,3.394c11.517,9.084,15.7,25,14.518,39.145a60.816,60.816,0,0,1-2.2,12.535c-.9,2.963,3.734,4.229,4.629,1.276Z"/><path class="b" d="M166.12,77.816c-9.749,8.7-12.466,23.1-11.837,35.579a82.4,82.4,0,0,0,2.078,14.405c.7,3.008,5.325,1.735,4.629-1.276-2.919-12.619-3.427-27.338,3.324-38.9a25.419,25.419,0,0,1,5.2-6.414c2.31-2.061-1.094-5.446-3.394-3.394Z"/><path class="b" d="M244.8,64.511c-7.779-8.332-19.507-13.238-30.8-13.636-11.07-.39-22.025,1.479-31.863,6.753a55.081,55.081,0,0,0-16.36,13.031,2.47,2.47,0,0,0,0,3.394,2.418,2.418,0,0,0,3.394,0,52.086,52.086,0,0,1,29.257-17.276c9.538-1.977,20.159-1.879,29.229,1.89a39.664,39.664,0,0,1,13.75,9.238c2.113,2.263,5.5-1.137,3.394-3.394Z"/><path class="b" d="M221.149,102.28a33.281,33.281,0,0,1,14.216,12.276,90.065,90.065,0,0,1,5.247,9.171c.916,1.786,1.618,3.855,3.657,4.611,2.014.746,3.762-.215,5.46-1.252,2.632-1.608.223-5.761-2.423-4.145-.4.245-.805.482-1.217.708-.172.095-.345.189-.519.28a.3.3,0,0,0,.264-.094c.062-.073.145-.034.25.118a1.274,1.274,0,0,0-.22-.463c-.2-.405-.405-.8-.608-1.207-.764-1.506-1.541-3-2.351-4.487a62.861,62.861,0,0,0-5.029-7.95,36.541,36.541,0,0,0-14.3-11.71,2.481,2.481,0,0,0-3.284.861,2.415,2.415,0,0,0,.861,3.283Z"/><path class="b" d="M169.954,123.34a126.7,126.7,0,0,1,8.9-9.082,66.252,66.252,0,0,1,9.892-7.877,8.683,8.683,0,0,0,1.051-.624c.568-.48-.332.079-.614.008.266.067-.656-.252-.5-.37-.011.009.31,2.348.323,2.535.137,2.008.758,4.5,3.288,4.453,1.381-.027,2.785-1,3.938-1.683,1.55-.921,3.067-1.9,4.589-2.864a107.131,107.131,0,0,1,12.767-7.308,2.418,2.418,0,0,0,.861-3.284,2.457,2.457,0,0,0-3.283-.861,98.292,98.292,0,0,0-11.554,6.541c-1.626,1.025-3.241,2.067-4.879,3.072-.612.376-1.226.748-1.853,1.1-.265.149-.531.3-.8.432a2.1,2.1,0,0,0-.312.152l-.145.067q.649-.426,1.267.465c1.946,1.067.88.775.942.154-.008.079.053.5,0-.142-.036-.408-.047-.818-.077-1.227a11.131,11.131,0,0,0-.568-3.207,4.007,4.007,0,0,0-6.062-2.027,62.944,62.944,0,0,0-10.2,7.774,125.5,125.5,0,0,0-10.36,10.411c-2.038,2.308,1.344,5.715,3.394,3.394Z"/><path class="b" d="M196.6,143.931a24.731,24.731,0,0,0-.829,2.673c-.382,1.45-.874,3.28.327,4.492a3.483,3.483,0,0,0,.958.658,4.126,4.126,0,0,0,1.035.375,4.954,4.954,0,0,0,1.037.1c.148-.007.294-.025.442-.027a2.493,2.493,0,0,0,1.7-.7,2.4,2.4,0,0,0-1.7-4.1,5.9,5.9,0,0,1-.841.013l.638.086a2.018,2.018,0,0,1-.462-.133l.574.242a2.883,2.883,0,0,1-.458-.27l.486.375a.081.081,0,0,1-.019-.018l.375.485a.24.24,0,0,1-.023-.038l.242.573a.465.465,0,0,1-.028-.117l.085.638a2.091,2.091,0,0,1,.022-.487l-.086.638a16.225,16.225,0,0,1,.552-2.327c.182-.622.366-1.25.6-1.855a2.409,2.409,0,0,0-.242-1.849,2.4,2.4,0,0,0-3.283-.861l-.486.375a2.407,2.407,0,0,0-.617,1.059Z"/><path class="b" d="M177.474,133.529c-.645,2.237-.185,7.368,3.871,7.77,5.358-.079,5.606-6.29,3.785-9.193C183.639,129.729,179.291,128.773,177.474,133.529Z"/><path class="b" d="M223.443,132.431c.735,2.326.306,7.692-4.107,8.181-5.838.007-6.2-6.475-4.254-9.538C216.673,128.566,221.4,127.494,223.443,132.431Z"/><path class="b" d="M194.784,166.05a18.422,18.422,0,0,0,7.638.5,21.38,21.38,0,0,0,8.1-2.518,2.4,2.4,0,1,0-2.423-4.144c-.25.144-.5.282-.761.412-.117.059-.235.116-.353.171-.047.022-.434.2-.168.081.3-.134-.273.108-.273.108-.127.049-.254.1-.382.143q-.388.139-.782.261c-.568.176-1.144.325-1.724.451-.31.067-.622.128-.934.181-.139.024-.279.045-.418.067-.467.076.2-.013-.094.013a24.738,24.738,0,0,1-3.475.12c-.258-.014-.516-.033-.773-.059-.292-.029-.334-.042-.017.006-.121-.018-.242-.036-.363-.057a12.082,12.082,0,0,1-1.525-.365,2.423,2.423,0,0,0-2.952,1.677,2.45,2.45,0,0,0,1.676,2.952Z"/></svg>