<?xml version="1.0" encoding="utf-8"?>
<!-- Uploaded to: SVG Repo, www.svgrepo.com, Generator: SVG Repo Mixer Tools -->
<svg width="800px" height="800px" viewBox="0 0 1024 1024" class="icon"  version="1.1" xmlns="http://www.w3.org/2000/svg"><path d="M85.333333 192h853.333334v640H85.333333z" fill="#E8EAF6" /><path d="M640 725.333333h59.733333l-106.666666-106.666666-59.733334 59.733333 106.666667 106.666667zM384 725.333333h-59.733333l106.666666-106.666666 59.733334 59.733333-106.666667 106.666667z" fill="#5C6BC0" /><path d="M234.666667 320h554.666666v85.333333H234.666667zM512 490.666667c-59.733333 0-106.666667 46.933333-106.666667 106.666666s46.933333 106.666667 106.666667 106.666667 106.666667-46.933333 106.666667-106.666667-46.933333-106.666667-106.666667-106.666666z m0 170.666666c-36.266667 0-64-27.733333-64-64s27.733333-64 64-64 64 27.733333 64 64-27.733333 64-64 64z" fill="#9FA8DA" /><path d="M64 170.666667v682.666666h896V170.666667H64z m853.333333 576c-36.266667 0-64 27.733333-64 64H170.666667c0-36.266667-27.733333-64-64-64V277.333333c36.266667 0 64-27.733333 64-64h682.666666c0 36.266667 27.733333 64 64 64v469.333334z" fill="#9FA8DA" /></svg>