<?xml version="1.0" encoding="iso-8859-1"?>
<!-- Uploaded to: SVG Repo, www.svgrepo.com, Generator: SVG Repo Mixer Tools -->
<svg height="800px" width="800px" version="1.1" id="Layer_1" xmlns="http://www.w3.org/2000/svg" xmlns:xlink="http://www.w3.org/1999/xlink" 
	 viewBox="0 0 512 512" xml:space="preserve">
<path style="fill:#65C6BB;" d="M470.487,445.793H17.777C7.959,445.793,0,437.834,0,428.017V107.683
	c0-9.817,7.959-17.777,17.777-17.777h349.381c15.451,0,23.528,18.425,13.1,29.792c-10.012,10.916-15.168,25.069-14.518,39.852
	c1.458,33.12,23.649,35.3,23.649,51.474v98.293l19.289-18.674c6.891-6.673,17.835-6.672,24.728-0.002l49.443,47.855
	c7.224,6.992,5.414,6.807,5.414,89.521C488.264,437.836,480.304,445.793,470.487,445.793z"/>
<path style="fill:#20B8AE;" d="M482.85,338.496l-49.443-47.855c-6.893-6.671-17.836-6.671-24.728,0.002l-19.289,18.674v-98.293
	c0-16.209-22.185-18.221-23.649-51.474c-0.651-14.783,4.505-28.936,14.518-39.852c10.445-11.388,2.324-29.792-13.1-29.792H244.132
	v355.887h226.355c9.817,0,17.777-7.959,17.777-17.777C488.264,345.148,490.072,345.486,482.85,338.496z"/>
<g>
	<path style="fill:#1DA49C;" d="M298.647,202.67h-109.03c-9.817,0-17.777-7.959-17.777-17.777s7.959-17.777,17.777-17.777h109.03
		c9.817,0,17.777,7.959,17.777,17.777S308.464,202.67,298.647,202.67z"/>
	<path style="fill:#1DA49C;" d="M298.647,368.585h-109.03c-9.817,0-17.777-7.959-17.777-17.777s7.959-17.777,17.777-17.777h109.03
		c9.817,0,17.777,7.959,17.777,17.777S308.464,368.585,298.647,368.585z"/>
	<path style="fill:#1DA49C;" d="M371.608,285.628H116.656c-9.817,0-17.777-7.959-17.777-17.777c0-9.817,7.959-17.777,17.777-17.777
		h254.952c9.817,0,17.777,7.959,17.777,17.777C389.384,277.668,381.425,285.628,371.608,285.628z"/>
</g>
<g>
	<path style="fill:#356F7C;" d="M298.647,333.032h-54.515v35.553h54.515c9.817,0,17.777-7.959,17.777-17.777
		C316.423,340.99,308.464,333.032,298.647,333.032z"/>
	<path style="fill:#356F7C;" d="M371.608,250.074H244.132v35.553h127.476c9.817,0,17.777-7.959,17.777-17.777
		C389.384,258.032,381.425,250.074,371.608,250.074z"/>
	<path style="fill:#356F7C;" d="M298.647,167.117h-54.515v35.553h54.515c9.817,0,17.777-7.959,17.777-17.777
		C316.423,175.075,308.464,167.117,298.647,167.117z"/>
</g>
<path style="fill:#51B3DA;" d="M458.124,364.044l-37.078-35.887l-37.068,35.886c-11.269,10.908-30.142,2.876-30.142-12.772V211.025
	c0-7.053,4.169-13.438,10.624-16.274c19.35-8.51,21.569,17.749,56.572,17.749c0.02,0,0.038,0,0.057,0
	c13.883-0.014,27.154-5.191,37.368-14.576c11.381-10.461,29.805-2.345,29.805,13.089v140.257
	C488.264,367.009,469.321,374.88,458.124,364.044z"/>
<path style="fill:#238CC5;" d="M458.458,197.924c-10.213,9.386-23.484,14.563-37.368,14.576c-0.014,0-0.027,0-0.04,0v115.662
	l37.074,35.884c11.216,10.854,30.14,2.969,30.14-12.773V211.015C488.264,195.551,469.82,187.481,458.458,197.924z"/>
<path style="fill:#FFDA79;" d="M421.04,248.053c-47.781,0-88.661-37.466-90.821-86.968c-2.279-52.223,39.612-94.88,90.824-94.88
	c83.74,0,121.639,102.734,61.471,157.898l0,0c-16.792,15.431-38.605,23.937-61.419,23.95
	C421.078,248.053,421.059,248.053,421.04,248.053z"/>
<g>
	<path style="fill:#FFD155;" d="M505.61,124.11c-13.888-35.714-46.289-57.902-84.56-57.904v181.847c0.015,0,0.031,0,0.045,0
		C483.639,248.016,529.382,185.243,505.61,124.11z"/>
	<path style="fill:#FFD155;" d="M456.026,157.127c0,19.31-15.669,34.98-34.98,34.98c-46.2,0-46.284-69.959,0-69.959
		C440.367,122.147,456.026,137.812,456.026,157.127z"/>
</g>
<path style="fill:#FFC72D;" d="M421.05,122.147v69.958c19.309-0.001,34.977-15.671,34.977-34.98
	C456.026,137.812,440.37,122.148,421.05,122.147z"/>
</svg>